<?xml version="1.0" encoding="utf-8"?>
<!-- Generator: Adobe Illustrator 25.2.1, SVG Export Plug-In . SVG Version: 6.00 Build 0)  -->
<svg version="1.1" id="Camada_1" xmlns:svgjs="http://svgjs.com/svgjs"
	 xmlns="http://www.w3.org/2000/svg" xmlns:xlink="http://www.w3.org/1999/xlink" x="0px" y="0px" viewBox="0 0 512 512"
	 style="enable-background:new 0 0 512 512;" xml:space="preserve">
<style type="text/css">
	.st0{fill:url(#SVGID_1_);}
	.st1{opacity:0.1;}
	.st2{fill:#0000CB;}
	.st3{fill:#FFC498;}
	.st4{fill:#F16E6E;}
	.st5{fill:#99A2E7;}
	.st6{fill:#FF7300;}
	.st7{fill:#FFAA66;}
	.st8{fill:#A72121;}
	.st9{fill:#222E8F;}
	.st10{fill:#FFFFFF;}
	.st11{fill:#121B69;}
	.st12{fill:#FF9C33;}
</style>
<g>
	<g>
		<g>
			<g>
				
					<linearGradient id="SVGID_1_" gradientUnits="userSpaceOnUse" x1="165.675" y1="121.4274" x2="468.6959" y2="424.4483" gradientTransform="matrix(1 0 0 -1 0 514)">
					<stop  offset="0" style="stop-color:#FFF2ED;stop-opacity:0"/>
					<stop  offset="0.2938" style="stop-color:#FFE9DD;stop-opacity:0.373"/>
					<stop  offset="0.7874" style="stop-color:#FFD5BA"/>
				</linearGradient>
				<path class="st0" d="M508.5,196.2c-12.1-72.3-92.1-219.7-175.4-142.9c-29.9,27.6-32.5,195.5-90.5,125.6
					c-68.8-82.9-93.5,11.2-165.5,13.2c-16.8,0.5-51.9-18.3-64.5-9.6C-33.9,214.6,61.9,299.6,121,307.3
					c98.6,12.9,191.3,52.7,250.2,136.8c10.3,14.7,21.4,32.4,39.1,35.3C508.1,495.5,520.5,267.9,508.5,196.2z"/>
			</g>
		</g>
		<g>
			<g>
				<g>
					<g class="st1">
						<path class="st2" d="M143,250.6l-52.7-30.5c-9.2-5.3-18.7,6.5-11.6,14.4l7.8,8.5c-16.7-4.4-29.1-19.7-29.1-37.8
							c0-21.6,17.5-39.1,39.1-39.1h10v12.5c0,5.1,4.1,9.2,9.2,9.2h142.5c20.3,0,36.8-16.5,36.8-36.8V90.5c0-5.1-4.1-9.2-9.2-9.2
							H115.7c-5.1,0-9.2,4.1-9.2,9.2v49.8h-10c-35.8,0-65,29.2-65,65c0,31.1,22,57.2,51.2,63.5l-6.8,5.6c-8.2,6.8-0.4,19.8,9.5,15.8
							l56.5-22.8C149,264.5,149.7,254.5,143,250.6L143,250.6z"/>
						<path class="st2" d="M198.2,397.1l-52.7-30.5c-9.2-5.3-18.7,6.5-11.6,14.4l7.8,8.5c-16.7-4.4-29.1-19.7-29.1-37.8
							c0-21.6,17.5-39.1,39.1-39.1h10v11.5c0,5.1,4.1,9.2,9.2,9.2h142.5c20.3,0,36.8-16.5,36.8-36.8V273h10c35.8,0,65-29.2,65-65
							c0-31.1-22-57.2-51.2-63.5l6.8-5.6c8.2-6.8,0.4-19.8-9.5-15.8l-56.5,22.8c-7.2,2.9-7.9,12.8-1.2,16.7l52.7,30.5
							c9.2,5.3,18.7-6.5,11.6-14.4l-7.8-8.5c16.7,4.4,29.1,19.7,29.1,37.8c0,21.6-17.5,39.1-39.1,39.1h-10v-11.2
							c0-5.1-4.1-9.2-9.2-9.2H170.9c-5.1,0-9.2,4.1-9.2,9.2v50.8h-10c-35.8,0-65,29.2-65,65c0,31.1,22,57.2,51.2,63.5l-6.8,5.6
							c-8.2,6.8-0.4,19.8,9.5,15.8l56.5-22.8C204.3,410.9,205,401,198.2,397.1L198.2,397.1z"/>
						<path class="st2" d="M429.3,290.9l6.8-5.6c8.2-6.8,0.4-19.8-9.5-15.8l-56.5,22.8c-7.2,2.9-7.9,12.8-1.2,16.7l52.7,30.5
							c9.2,5.3,18.7-6.5,11.6-14.4l-7.8-8.5c16.7,4.4,29.1,19.7,29.1,37.8c0,21.6-17.5,39.1-39.1,39.1h-10v-12.2
							c0-5.1-4.1-9.2-9.2-9.2H226.2c-5.1,0-9.2,4.1-9.2,9.2v88.2c0,5.1,4.1,9.2,9.2,9.2h142.5c20.3,0,36.8-16.5,36.8-36.8v-22.5h10
							c35.8,0,65-29.2,65-65C480.6,323.3,458.6,297.2,429.3,290.9L429.3,290.9z"/>
					</g>
					<g>
						<g>
							<path class="st3" d="M143,226.6l-52.7-30.5c-9.2-5.3-18.7,6.5-11.6,14.4l7.8,8.5c-16.7-4.4-29.1-19.7-29.1-37.8
								c0-21.6,17.5-39.1,39.1-39.1h10v-25.9h-10c-35.8,0-65,29.2-65,65c0,31.1,22,57.2,51.2,63.5l-6.8,5.6
								c-8.2,6.8-0.4,19.8,9.5,15.8l56.5-22.8C149,240.5,149.7,230.5,143,226.6L143,226.6z"/>
							<path class="st4" d="M198.2,373.1l-52.7-30.5c-9.2-5.3-18.7,6.5-11.6,14.4l7.8,8.5c-16.7-4.4-29.1-19.7-29.1-37.8
								c0-21.6,17.5-39.1,39.1-39.1h10v-25.9h-10c-35.8,0-65,29.2-65,65c0,31.1,22,57.2,51.2,63.5l-6.8,5.6
								c-8.2,6.8-0.4,19.8,9.5,15.8l56.5-22.8C204.3,386.9,205,377,198.2,373.1L198.2,373.1z"/>
						</g>
						<g>
							<path class="st5" d="M369,285l52.7,30.5c9.2,5.3,18.7-6.5,11.6-14.4l-7.8-8.5c16.7,4.4,29.1,19.7,29.1,37.8
								c0,21.6-17.5,39.1-39.1,39.1h-10v25.9h10c35.8,0,65-29.2,65-65c0-31.1-22-57.2-51.2-63.5l6.8-5.6c8.2-6.8,0.4-19.8-9.5-15.8
								l-56.5,22.8C363,271.2,362.3,281.1,369,285L369,285z"/>
							<path class="st4" d="M313.8,138.6l52.7,30.5c9.2,5.3,18.7-6.5,11.6-14.4l-7.8-8.5c16.7,4.4,29.1,19.7,29.1,37.8
								c0,21.6-17.5,39.1-39.1,39.1h-10V249h10c35.8,0,65-29.2,65-65c0-31.1-22-57.2-51.2-63.5l6.8-5.6c8.2-6.8,0.4-19.8-9.5-15.8
								l-56.5,22.8C307.7,124.8,307,134.7,313.8,138.6L313.8,138.6z"/>
						</g>
						<g>
							<g>
								<path class="st6" d="M295,101.3V127c0,20.3-16.5,36.8-36.8,36.8H115.7c-5.1,0-9.2-4.1-9.2-9.2v-25.8L295,101.3z"/>
								<g>
									<g>
										<path class="st7" d="M258.2,138.1H115.7c-5.1,0-9.2-4.1-9.2-9.2V66.5c0-5.1,4.1-9.2,9.2-9.2h170.2c5.1,0,9.2,4.1,9.2,9.2
											v34.8C295,121.6,278.5,138.1,258.2,138.1z"/>
									</g>
								</g>
							</g>
						</g>
						<g>
							<g>
								<g>
									<path class="st8" d="M350.3,246.7v25.8c0,20.3-16.5,36.8-36.8,36.8H170.9c-5.1,0-9.2-4.1-9.2-9.2v-25.8L350.3,246.7z"/>
									<g>
										<g>
											<path class="st4" d="M313.5,283.5H170.9c-5.1,0-9.2-4.1-9.2-9.2v-62.4c0-5.1,4.1-9.2,9.2-9.2h170.2
												c5.1,0,9.2,4.1,9.2,9.2v34.8C350.3,267,333.8,283.5,313.5,283.5z"/>
										</g>
									</g>
								</g>
							</g>
						</g>
						<g>
							<g>
								<g>
									<path class="st9" d="M405.5,392.1v25.8c0,20.3-16.5,36.8-36.8,36.8H226.2c-5.1,0-9.2-4.1-9.2-9.2v-25.8L405.5,392.1z"/>
									<g>
										<g>
											<path class="st5" d="M368.7,429H226.2c-5.1,0-9.2-4.1-9.2-9.2v-62.4c0-5.1,4.1-9.2,9.2-9.2h170.2c5.1,0,9.2,4.1,9.2,9.2
												v34.8C405.5,412.5,389,429,368.7,429L368.7,429z"/>
										</g>
									</g>
								</g>
							</g>
						</g>
					</g>
					<g>
						<g>
							<g>
								<path class="st10" d="M227.9,93.3h-23.8c-2.8,0-5-2.2-5-5s2.2-5,5-5h23.8c2.8,0,5,2.2,5,5S230.7,93.3,227.9,93.3z"/>
							</g>
							<g>
								<path class="st10" d="M270.1,113.2h-66c-2.8,0-5-2.2-5-5s2.2-5,5-5h66c2.8,0,5,2.2,5,5S272.9,113.2,270.1,113.2z"/>
							</g>
						</g>
						<g>
							<g>
								<path class="st10" d="M143.5,118.3h-5.3c-6.5,0-11.8-5.3-11.8-11.8V90c0-6.5,5.3-11.8,11.8-11.8h5.3
									c6.5,0,11.8,5.3,11.8,11.8v16.5C155.3,113,150,118.3,143.5,118.3z M138.2,88.2c-1,0-1.8,0.8-1.8,1.8v16.5
									c0,1,0.8,1.8,1.8,1.8h5.3c1,0,1.8-0.8,1.8-1.8V90c0-1-0.8-1.8-1.8-1.8L138.2,88.2L138.2,88.2z"/>
							</g>
							<g>
								<path class="st10" d="M172.3,118.3c-2.8,0-5-2.2-5-5V88.2h-0.4c-2.8,0-5-2.2-5-5s2.2-5,5-5h5.4c2.8,0,5,2.2,5,5v30.1
									C177.3,116.1,175.1,118.3,172.3,118.3z"/>
							</g>
						</g>
					</g>
					<g>
						<g>
							<g>
								<path class="st10" d="M339.5,385.1h-23.8c-2.8,0-5-2.2-5-5s2.2-5,5-5h23.8c2.8,0,5,2.2,5,5S342.3,385.1,339.5,385.1z"/>
							</g>
							<g>
								<path class="st10" d="M381.8,405h-66c-2.8,0-5-2.2-5-5s2.2-5,5-5h66c2.8,0,5,2.2,5,5S384.5,405,381.8,405z"/>
							</g>
						</g>
						<g>
							<path class="st10" d="M252.9,368.5h-5.3c-6.5,0-11.8,5.3-11.8,11.8v16.5c0,6.5,5.3,11.8,11.8,11.8h5.3
								c6.5,0,11.8-5.3,11.8-11.8v-16.5C264.7,373.8,259.4,368.5,252.9,368.5L252.9,368.5z M254.7,396.8c0,1-0.8,1.8-1.8,1.8h-5.3
								c-1,0-1.8-0.8-1.8-1.8v-16.5c0-1,0.8-1.8,1.8-1.8h5.3c1,0,1.8,0.8,1.8,1.8V396.8z"/>
							<path class="st10" d="M298.1,381c0-6.9-5.6-12.5-12.5-12.5h-9.4c-2.8,0-5,2.2-5,5s2.2,5,5,5h9.4c1.4,0,2.5,1.1,2.5,2.5
								c0,1.4-1.1,2.5-2.5,2.5h-9.4c-2.8,0-5,2.2-5,5s2.2,5,5,5h9.4c1.4,0,2.5,1.1,2.5,2.5c0,1.4-1.1,2.5-2.5,2.5h-9.4
								c-2.8,0-5,2.2-5,5s2.2,5,5,5h9.4c6.9,0,12.5-5.6,12.5-12.5c0-2.8-1-5.4-2.5-7.5C297.2,386.4,298.1,383.9,298.1,381z"/>
						</g>
					</g>
					<g>
						<g>
							<g>
								<path class="st10" d="M285,237.1h-23.8c-2.8,0-5-2.2-5-5s2.2-5,5-5H285c2.8,0,5,2.2,5,5S287.8,237.1,285,237.1z"/>
							</g>
							<g>
								<path class="st10" d="M327.2,256.9h-66c-2.8,0-5-2.2-5-5s2.2-5,5-5h66c2.8,0,5,2.2,5,5S330,256.9,327.2,256.9z"/>
							</g>
						</g>
						<g>
							<g>
								<path class="st10" d="M197.7,263.7h-5.3c-6.5,0-11.8-5.3-11.8-11.8v-16.5c0-6.5,5.3-11.8,11.8-11.8h5.3
									c6.5,0,11.8,5.3,11.8,11.8v16.5C209.5,258.4,204.2,263.7,197.7,263.7z M192.4,233.7c-1,0-1.8,0.8-1.8,1.8v16.5
									c0,1,0.8,1.8,1.8,1.8h5.3c1,0,1.8-0.8,1.8-1.8v-16.5c0-1-0.8-1.8-1.8-1.8H192.4z"/>
							</g>
							<g>
								<path class="st10" d="M239.2,263.3h-18.1c-2.1,0-4-1.3-4.7-3.3s-0.1-4.2,1.6-5.6c5-4.1,12.8-11.5,14.4-15.2
									c0.6-1.5,0.5-3.1-0.2-4.2c-0.6-0.9-1.5-1.3-2.6-1.3c-1.9,0-3.4,1.5-3.4,3.4c0,2.8-2.2,5-5,5s-5-2.2-5-5
									c0-7.4,6-13.4,13.4-13.4c4.5,0,8.5,2.1,10.9,5.8c2.6,3.9,3.1,9,1.2,13.6c-1.4,3.3-4.4,7-7.6,10.3h5.2c2.8,0,5,2.2,5,5
									S242,263.3,239.2,263.3L239.2,263.3z"/>
							</g>
						</g>
					</g>
				</g>
				<g>
					<path class="st11" d="M87.2,270.8l56.5-22.8c5.1-2.1,8.5-6.8,8.9-12.3s-2.3-10.6-7.1-13.4l-52.7-30.5
						c-6.3-3.6-13.8-2.2-18.3,3.4c-2.2,2.7-3.2,5.8-3.3,8.9c-5.5-6.1-8.8-14.2-8.8-22.9c0-18.8,15.3-34.1,34.1-34.1h5v7.5
						c0,7.8,6.4,14.2,14.2,14.2h142.5c23.1,0,41.8-18.8,41.8-41.8v-20.6c0-2.8-2.2-5-5-5s-5,2.2-5,5V127c0,17.6-14.3,31.8-31.8,31.8
						H115.7c-2.3,0-4.2-1.9-4.2-4.2V66.5c0-2.3,1.9-4.2,4.2-4.2h170.2c2.3,0,4.2,1.9,4.2,4.2v10.5c0,2.8,2.2,5,5,5s5-2.2,5-5V66.5
						c0-7.8-6.4-14.2-14.2-14.2H115.7c-7.8,0-14.2,6.4-14.2,14.2v44.8h-5c-38.6,0-70,31.4-70,70c0,29.4,18.8,55.7,45.8,65.7
						c-5.2,4.6-6.3,12-2.7,18c2.7,4.5,7.3,7,12.1,7C83.5,271.9,85.4,271.6,87.2,270.8z M78.1,259.8c-0.4-0.7-1.7-3.4,1-5.5l6.8-5.6
						c1.5-1.2,2.1-3.2,1.7-5s-1.9-3.3-3.8-3.7c-27.4-5.9-47.3-30.6-47.3-58.6c0-33.1,26.9-60,60-60h5v15.9h-5
						c-24.3,0-44.1,19.8-44.1,44.1c0,20,13.5,37.5,32.9,42.6c2.1,0.6,4.4-0.3,5.6-2.2s0.9-4.3-0.6-6l-7.8-8.5
						c-2.3-2.5-0.7-4.9-0.2-5.6c0.5-0.7,2.6-2.8,5.5-1l52.7,30.5c2.1,1.2,2.2,3.2,2.1,4s-0.4,2.8-2.7,3.7l-56.5,22.8
						C80.3,262.9,78.6,260.5,78.1,259.8L78.1,259.8z"/>
					<path class="st11" d="M200.7,368.8L148,338.3c-6.3-3.6-13.8-2.2-18.3,3.4c-2.2,2.7-3.2,5.8-3.3,8.9c-5.5-6.1-8.8-14.2-8.8-22.9
						c0-18.8,15.3-34.1,34.1-34.1h5v6.5c0,7.8,6.4,14.2,14.2,14.2h142.5c23.1,0,41.8-18.8,41.8-41.8V254h5c38.6,0,70-31.4,70-70
						c0-29.4-18.8-55.7-45.8-65.7c5.2-4.6,6.3-12,2.7-18c-3.7-6.2-11-8.6-17.7-5.9l-56.5,22.8c-5.1,2.1-8.5,6.8-8.9,12.3
						c-0.4,5.5,2.3,10.6,7.1,13.4l52.7,30.5c6.3,3.6,13.8,2.2,18.3-3.4c2.2-2.7,3.2-5.8,3.3-8.9c5.5,6.1,8.8,14.2,8.8,22.9
						c0,18.8-15.3,34.1-34.1,34.1h-5v-6.2c0-7.8-6.4-14.2-14.2-14.2H170.9c-7.8,0-14.2,6.4-14.2,14.2v45.8h-5c-38.6,0-70,31.4-70,70
						c0,29.4,18.8,55.7,45.8,65.7c-5.2,4.6-6.3,12-2.7,18c2.7,4.5,7.3,7,12.1,7c1.8,0,3.7-0.4,5.5-1.1l56.5-22.8
						c5.1-2.1,8.5-6.8,8.9-12.3C208.2,376.7,205.5,371.5,200.7,368.8L200.7,368.8z M360.3,228.1c24.3,0,44.1-19.8,44.1-44.1
						c0-20-13.5-37.5-32.9-42.6c-2.1-0.6-4.4,0.3-5.5,2.2c-1.1,1.9-0.9,4.3,0.6,6l7.8,8.5c2.3,2.5,0.7,4.9,0.2,5.6s-2.6,2.8-5.5,1
						l-52.7-30.5c-2.1-1.2-2.2-3.2-2.1-4s0.4-2.8,2.7-3.7l56.5-22.8c3.2-1.3,4.9,1,5.3,1.8c0.4,0.7,1.7,3.4-1,5.5l-6.8,5.6
						c-1.5,1.2-2.1,3.2-1.7,5c0.5,1.9,1.9,3.3,3.8,3.7c27.4,5.9,47.3,30.6,47.3,58.6c0,33.1-26.9,60-60,60h-5v-15.9L360.3,228.1z
						 M170.9,207.7h170.2c2.3,0,4.2,1.9,4.2,4.2v60.6c0,17.6-14.3,31.8-31.8,31.8H170.9c-2.3,0-4.2-1.9-4.2-4.2v-88.2
						C166.7,209.6,168.6,207.7,170.9,207.7L170.9,207.7z M197.9,381.5c-0.1,0.8-0.4,2.8-2.7,3.7L138.7,408c-3.2,1.3-4.9-1-5.3-1.8
						c-0.4-0.7-1.7-3.4,1-5.5l6.8-5.6c1.5-1.2,2.1-3.2,1.7-5c-0.5-1.9-1.9-3.3-3.8-3.7c-27.4-5.9-47.3-30.6-47.3-58.6
						c0-33.1,26.9-60,60-60h5v15.9h-5c-24.3,0-44.1,19.8-44.1,44.1c0,20,13.5,37.5,32.9,42.6c2.1,0.6,4.4-0.3,5.6-2.2s0.9-4.3-0.6-6
						l-7.8-8.5c-2.3-2.5-0.7-5-0.2-5.6s2.6-2.8,5.5-1l52.7,30.5C197.8,378.7,197.9,380.7,197.9,381.5L197.9,381.5z"/>
					<path class="st11" d="M439.7,264.8c5.2-4.6,6.3-12,2.7-18c-3.7-6.2-11-8.6-17.7-5.9l-56.5,22.8c-5.1,2.1-8.5,6.8-8.9,12.3
						s2.3,10.6,7.1,13.4l52.7,30.5c6.3,3.6,13.8,2.2,18.3-3.4c2.2-2.7,3.2-5.8,3.3-8.9c5.5,6.1,8.8,14.2,8.8,22.9
						c0,18.8-15.3,34.1-34.1,34.1h-5v-7.2c0-7.8-6.4-14.2-14.2-14.2H284.2c-2.8,0-5,2.2-5,5s2.2,5,5,5h112.2c2.3,0,4.2,1.9,4.2,4.2
						v60.6c0,17.6-14.3,31.8-31.8,31.8H226.2c-2.3,0-4.2-1.9-4.2-4.2v-88.2c0-2.3,1.9-4.2,4.2-4.2h28.4c2.8,0,5-2.2,5-5s-2.2-5-5-5
						h-28.4c-7.8,0-14.2,6.4-14.2,14.2v88.2c0,7.8,6.4,14.2,14.2,14.2h142.5c23.1,0,41.8-18.8,41.8-41.8v-17.5h5
						c38.6,0,70-31.4,70-70C485.6,301,466.8,274.8,439.7,264.8z M415.6,390.4h-5v-15.9h5c24.3,0,44.1-19.8,44.1-44.1
						c0-20-13.5-37.5-32.9-42.6c-2.1-0.6-4.4,0.3-5.5,2.2c-1.1,1.9-0.9,4.3,0.6,6l7.8,8.5c2.3,2.5,0.7,5,0.2,5.6
						c-0.5,0.7-2.6,2.8-5.5,1l-52.7-30.5c-2.1-1.2-2.2-3.2-2.1-4s0.4-2.8,2.7-3.7l56.5-22.8c3.2-1.3,4.9,1,5.3,1.8
						c0.4,0.7,1.7,3.4-1,5.5l-6.8,5.6c-1.5,1.2-2.1,3.2-1.7,5s1.9,3.3,3.8,3.7c27.4,5.9,47.3,30.6,47.3,58.6
						C475.6,363.5,448.7,390.4,415.6,390.4L415.6,390.4z"/>
				</g>
			</g>
			<g>
				<path class="st4" d="M79.1,435.6c-0.5,0-0.9-0.1-1.4-0.2c-13.1-3.7-14.1-22.5-14.1-23.3c-0.1-2.3,1.3-4.3,3.5-5l10.5-3.3
					c1-0.3,2-0.3,3,0l10.5,3.3c2.2,0.7,3.6,2.7,3.5,5c0,0.8-1,19.6-14.1,23.3C80,435.6,79.6,435.6,79.1,435.6z M74.1,415.4
					c0.7,3.5,2.2,8,5,9.8c2.8-1.8,4.3-6.3,5-9.8l-5-1.5L74.1,415.4z"/>
			</g>
			<g>
				<path class="st12" d="M367.2,78.2c-0.5,0-0.9-0.1-1.4-0.2c-13.1-3.7-14.1-22.5-14.1-23.3c-0.1-2.3,1.3-4.3,3.5-5l10.5-3.3
					c1-0.3,2-0.3,3,0l10.5,3.3c2.2,0.7,3.6,2.7,3.5,5c0,0.8-1,19.6-14.1,23.3C368.1,78.1,367.7,78.2,367.2,78.2z M362.2,58
					c0.7,3.5,2.2,8,5,9.8c2.8-1.8,4.3-6.3,5-9.8l-5-1.5L362.2,58z"/>
			</g>
			<g>
				<path class="st12" d="M50.2,326.6c-0.5,0-0.9-0.1-1.4-0.2c-13.1-3.7-14.1-22.5-14.1-23.3c-0.1-2.3,1.3-4.3,3.5-5l10.5-3.3
					c1-0.3,2-0.3,3,0l10.5,3.3c2.2,0.7,3.6,2.7,3.5,5c0,0.8-1,19.6-14.1,23.3C51.2,326.5,50.7,326.6,50.2,326.6z M45.2,306.3
					c0.7,3.5,2.2,8,5,9.8c2.8-1.8,4.3-6.3,5-9.8l-5-1.5L45.2,306.3z"/>
			</g>
			<g>
				<path class="st9" d="M430.1,471.7c-1.3,0-2.6-0.5-3.5-1.5c-2-2-2-5.1,0-7.1l10-10c2-2,5.1-2,7.1,0c2,2,2,5.1,0,7.1l-10,10
					C432.6,471.2,431.4,471.7,430.1,471.7z"/>
			</g>
			<g>
				<path class="st9" d="M420.3,87.3c-1.3,0-2.6-0.5-3.5-1.5c-2-2-2-5.1,0-7.1l10-10c2-2,5.1-2,7.1,0c2,2,2,5.1,0,7.1l-10,10
					C422.9,86.8,421.6,87.3,420.3,87.3z"/>
			</g>
		</g>
	</g>
</g>
</svg>
