<?xml version="1.0" encoding="utf-8"?>
<!-- Generator: Adobe Illustrator 25.2.1, SVG Export Plug-In . SVG Version: 6.00 Build 0)  -->
<svg version="1.1" id="Camada_1" xmlns:svgjs="http://svgjs.com/svgjs"
	 xmlns="http://www.w3.org/2000/svg" xmlns:xlink="http://www.w3.org/1999/xlink" x="0px" y="0px" viewBox="0 0 512 512"
	 style="enable-background:new 0 0 512 512;" xml:space="preserve">
<style type="text/css">
	.st0{fill:url(#SVGID_1_);}
	.st1{opacity:0.1;fill:#2626BC;enable-background:new    ;}
	.st2{fill:#97FFD2;}
	.st3{fill:#02FFB3;}
	.st4{fill:#01ECA5;}
	.st5{fill:#FFFFFF;}
	.st6{fill:#DCFDEE;}
	.st7{fill:#FF9E9E;}
	.st8{fill:#D97171;}
	.st9{fill:#F16E6E;}
	.st10{fill:#B04343;}
	.st11{fill:#FFDBED;}
	.st12{fill:#FF7EB8;}
	.st13{fill:#FFA8CF;}
	.st14{fill:#D2DEFF;}
	.st15{fill:#727EDA;}
	.st16{fill:#99A2E7;}
	.st17{fill:#070E47;}
	.st18{fill:#00D890;}
</style>
<g>
	<g>
		<g>
			
				<linearGradient id="SVGID_1_" gradientUnits="userSpaceOnUse" x1="48.7277" y1="21.3739" x2="411.0294" y2="383.6766" gradientTransform="matrix(1 0 0 -1 0 514)">
				<stop  offset="4.850001e-02" style="stop-color:#525252"/>
				<stop  offset="0.9993" style="stop-color:#D1D1D1"/>
			</linearGradient>
			<path class="st0" d="M284.9,10.9c44.7,21.7,56.5,75.3,76.8,116.5c26.1,53.1,54.8,50.8,102.4,72.2c43.2,19.4,54.3,75.7,44.6,119.2
				c-36.6,163.1-159.5-50.8-211.6,82.8c-17.5,45-35.8,69.7-82.9,87.3c-83,31-184.9,33.7-212.6-68.2c-16.5-60.5,96.9-90.8,141.6-99.8
				c38.8-7.8,174.1-33.2,154-84.5c-9.1-23.2-120-1.6-150.9-15.3c-33.8-14.9-33.6-48-7.2-70.5c11.4-9.7,24-18.7,31.8-31.4
				c8.7-14.2,10.8-31.4,12.7-47.9C192.4-8.3,263.5,0.5,284.9,10.9L284.9,10.9z"/>
		</g>
		<g>
			<g>
				<path class="st1" d="M411,392.9c11.6-20.2,18.2-43.5,18.2-68.4c0-58-35.8-107.6-86.5-127.9c-1.8-10.3-4.8-20.1-8.8-29.5
					c24.7-6,43.1-28.3,43.1-54.8c0-31.2-25.3-56.4-56.4-56.4c-25.7,0-47.4,17.2-54.2,40.8c-17.9-8.6-38-13.3-59.2-13.3
					C131,83.3,69.4,145,69.4,221.1c0,24.9,6.6,48.3,18.2,68.4l-17.7,56.3c-2.4,7.7,4.8,15,12.5,12.5l56.3-17.7
					c5.5,3.2,11.3,5.9,17.2,8.3c2.5,14,7.1,27.3,13.6,39.5c-18.3,8.4-31.6,26.3-33,47.8c-2,31.1,21.6,57.9,52.7,59.9
					c27.1,1.7,51-16,58-41.2c13.9,4.7,28.8,7.3,44.3,7.3c24.9,0,48.3-6.6,68.4-18.2l56.3,17.7c7.7,2.4,15-4.8,12.5-12.5L411,392.9z"
					/>
				<g>
					<g>
						<g>
							<path class="st2" d="M291.5,162.8c76.1,0,137.7,61.7,137.7,137.7c0,24.9-6.6,48.3-18.2,68.4l17.7,56.3
								c2.4,7.7-4.8,15-12.5,12.5l-56.3-17.7c-20.2,11.6-43.5,18.2-68.4,18.2c-76.1,0-137.7-61.7-137.7-137.7
								S215.4,162.8,291.5,162.8L291.5,162.8z"/>
							<path class="st3" d="M344.8,221.1c0,76.1-61.7,137.7-137.7,137.7c-15.2,0-29.8-2.5-43.5-7c-6.4-15.8-9.9-33.1-9.9-51.3
								c0-76.1,61.7-137.7,137.7-137.7c15.2,0,29.8,2.5,43.5,7C341.3,185.6,344.8,202.9,344.8,221.1z"/>
							<circle class="st3" cx="291.5" cy="300.5" r="113.4"/>
							<path class="st4" d="M344.8,221.1c0,76.1-61.7,137.7-137.7,137.7c-4.5,0-8.9-0.2-13.3-0.6c-10-16.9-15.7-36.6-15.7-57.6
								c0-62.6,50.8-113.4,113.4-113.4c18.6,0,36.2,4.5,51.7,12.4C344.3,206.5,344.8,213.7,344.8,221.1z"/>
							<circle class="st5" cx="343.4" cy="296.4" r="10"/>
							<circle class="st6" cx="305.1" cy="296.4" r="10"/>
						</g>
					</g>
					<g>
						<g>
							<path class="st7" d="M207.1,59.3C131,59.3,69.4,121,69.4,197.1c0,24.9,6.6,48.3,18.2,68.4l-17.7,56.3
								c-2.4,7.7,4.8,15,12.5,12.5l56.3-17.7c20.2,11.6,43.5,18.2,68.4,18.2c76.1,0,137.7-61.7,137.7-137.7S283.2,59.3,207.1,59.3
								L207.1,59.3z"/>
							<g>
								<path class="st8" d="M339.2,168c-6.4,2.5-13.3,3.9-20.5,3.9c-31.2,0-56.4-25.3-56.4-56.4c0-13,4.4-25,11.8-34.6
									C306.3,99.4,330.3,130.8,339.2,168L339.2,168z"/>
							</g>
							<circle class="st9" cx="207.1" cy="197.1" r="113.4"/>
							<g>
								<path class="st10" d="M317,168.7c-29.5-1.9-52.9-26.4-52.9-56.3c0-4.3,0.5-8.5,1.4-12.5C290.6,114.9,309.4,139.5,317,168.7
									L317,168.7z"/>
							</g>
						</g>
						<path class="st5" d="M264.9,160.5l-21.2-21.2c-3.9-3.9-10.2-3.9-14.1,0l-22.5,22.5l-22.5-22.5c-3.9-3.9-10.2-3.9-14.1,0
							l-21.2,21.2c-3.9,3.9-3.9,10.2,0,14.1l22.5,22.5l-22.5,22.5c-3.9,3.9-3.9,10.2,0,14.1l21.2,21.2c3.9,3.9,10.2,3.9,14.1,0
							l22.5-22.5l22.5,22.5c3.9,3.9,10.2,3.9,14.1,0l21.2-21.2c3.9-3.9,3.9-10.2,0-14.1l-22.5-22.5l22.5-22.5
							C268.8,170.7,268.8,164.4,264.9,160.5L264.9,160.5z"/>
					</g>
				</g>
				<g>
					<g>
						<circle class="st11" cx="192.9" cy="415.8" r="56.4"/>
					</g>
					<g>
						<path class="st12" d="M229.1,459.1c-10.7,9-24.8,14-39.8,13s-28.3-7.7-37.8-18c0.6-1,1.5-1.8,2.6-2.4l29.4-14.3l0.6-9.7l16,1
							l-0.6,9.7l27.3,17.9C227.8,457.1,228.6,458,229.1,459.1z"/>
					</g>
					<g>
						<g>
							<path class="st13" d="M174,399.1l-0.2,14.6c-0.2,10.2,7.7,18.8,17.9,19.4c10.2,0.7,19.1-6.8,20.3-17l1.6-14.6
								c1.3-11.3-7.1-21.3-18.5-22C183.8,378.9,174.2,387.8,174,399.1L174,399.1z"/>
						</g>
					</g>
				</g>
				<g>
					<g>
						<circle class="st14" cx="320.5" cy="88.3" r="56.4"/>
					</g>
					<g>
						<path class="st15" d="M359.4,129.2c-10.1,9.6-23.8,15.5-38.9,15.5s-28.8-5.9-38.9-15.5c0.6-1.1,1.4-1.9,2.5-2.5l28.4-16.1
							v-9.7h16v9.7l28.4,16.1C358,127.3,358.9,128.2,359.4,129.2L359.4,129.2z"/>
					</g>
					<g>
						<g>
							<path class="st16" d="M300.7,72.9l0.7,14.6c0.5,10.2,8.9,18.2,19.1,18.2s18.6-8,19.1-18.2l0.7-14.6
								c0.5-11.3-8.5-20.8-19.8-20.8C309.2,52.1,300.2,61.6,300.7,72.9z"/>
						</g>
					</g>
					<path class="st17" d="M416.5,369.5c11.6-21,17.7-44.8,17.7-69c0-48.4-24.2-93.1-64.8-119.6c-2.3-1.5-5.4-0.9-6.9,1.5
						s-0.9,5.4,1.5,6.9c37.7,24.6,60.3,66.2,60.3,111.2c0,23.2-6.1,46-17.5,65.9c-0.7,1.2-0.9,2.7-0.4,4l17.7,56.3
						c0.6,1.8,0.1,3.7-1.2,5c-1.3,1.3-3.2,1.8-5,1.2l-56.3-17.7c-1.3-0.4-2.8-0.3-4,0.4c-20,11.5-42.8,17.5-65.9,17.5
						c-13.1,0-26-1.9-38.3-5.6c0.5-2.6,0.9-5.2,1-7.9c2.2-33.8-23.6-63.1-57.4-65.2c-8.7-0.5-17.1,0.8-24.9,3.6
						c-3.9-8.1-7-16.6-9.2-25.4c14.3,4.6,29.2,7.1,44.4,7.1c78.7,0,142.7-64,142.7-142.7c0-17.5-3.1-34.5-9.3-50.7
						c24.1-8.3,41.4-31.2,41.4-58.1c0-33.9-27.6-61.4-61.4-61.4c-26,0-48.2,16.2-57.2,39c-13.4-5.8-27.6-9.4-42.1-10.8
						c-2.7-0.3-5.2,1.7-5.5,4.5c-0.3,2.7,1.7,5.2,4.5,5.5c13.9,1.4,27.4,4.9,40.2,10.5c-0.9,4.1-1.4,8.4-1.4,12.8
						c0,33.9,27.6,61.4,61.4,61.4c3.5,0,6.9-0.3,10.3-0.9c6,15.3,9,31.5,9,48.2c0,73.2-59.5,132.7-132.7,132.7
						c-23.2,0-46-6-65.9-17.5c-1.2-0.7-2.7-0.9-4-0.4l-56.3,17.7c-1.8,0.6-3.7,0.1-5-1.2c-0.6-0.6-2.1-2.4-1.2-5L92.3,267
						c0.4-1.3,0.3-2.8-0.4-4c-11.5-20-17.5-42.8-17.5-65.9c0-67.8,50.8-124.5,118.1-131.9c2.7-0.3,4.7-2.8,4.4-5.5
						c-0.3-2.7-2.8-4.7-5.5-4.4c-32.2,3.5-74.4,28.7-90.3,46.3c-23.7,26.2-36.7,60.2-36.7,95.6c0,24.2,6.1,48,17.8,69l-17,54.2
						c-1.7,5.3-0.3,11.1,3.7,15.1c4,4,9.8,5.4,15.1,3.7l54.2-17c4.3,2.4,8.8,4.6,13.4,6.5c2.3,11.7,6.1,23,11.3,33.7
						c-17.5,9.9-29.9,28.1-31.3,49.6c-2.2,33.8,23.6,63.1,57.4,65.2c1.3,0.1,2.6,0.1,4,0.1c26,0,48.8-16.5,57.6-40c13.3,4,27,6,41,6
						c24.2,0,48-6.1,69-17.7l54.2,17c5.4,1.7,11.1,0.3,15.1-3.7c4-4,5.4-9.8,3.7-15.1L416.5,369.5z M269.1,88.3
						c0-28.4,23.1-51.4,51.4-51.4c28.4,0,51.4,23.1,51.4,51.4c0,28.4-23.1,51.4-51.4,51.4C292.2,139.8,269.1,116.7,269.1,88.3z
						 M189.6,467.1c-28.3-1.8-49.9-26.3-48.1-54.6c1.7-27.2,24.4-48.2,51.3-48.2c1.1,0,2.2,0,3.3,0.1c28.3,1.8,49.9,26.3,48.1,54.6
						C242.4,447.4,217.9,469,189.6,467.1L189.6,467.1z"/>
				</g>
				<g>
					<g>
						<path class="st18" d="M348.4,338.8h-32.6c-2.8,0-5-2.2-5-5s2.2-5,5-5h32.6c2.8,0,5,2.2,5,5S351.2,338.8,348.4,338.8z"/>
					</g>
					<g>
						<path class="st5" d="M348.4,359.2h-66.6c-2.8,0-5-2.2-5-5s2.2-5,5-5h66.6c2.8,0,5,2.2,5,5S351.2,359.2,348.4,359.2z"/>
					</g>
					<g>
						<path class="st5" d="M348.4,379.6h-66.6c-2.8,0-5-2.2-5-5s2.2-5,5-5h66.6c2.8,0,5,2.2,5,5S351.2,379.6,348.4,379.6z"/>
					</g>
				</g>
			</g>
			<g>
				<path class="st3" d="M404.9,141.8c-1.3,0-2.6-0.5-3.5-1.5l-10.5-10.5c-2-2-2-5.1,0-7.1l10.5-10.5c2-2,5.1-2,7.1,0l10.5,10.5
					c2,2,2,5.1,0,7.1l-10.5,10.5C407.5,141.3,406.2,141.8,404.9,141.8z M401.5,126.3l3.4,3.4l3.4-3.4l-3.4-3.4L401.5,126.3z"/>
			</g>
			<g>
				<path class="st9" d="M146.4,52.2c-1.3,0-2.6-0.5-3.5-1.5l-10.5-10.5c-2-2-2-5.1,0-7.1l10.5-10.5c2-2,5.1-2,7.1,0l10.5,10.5
					c2,2,2,5.1,0,7.1l-10.5,10.5C148.9,51.7,147.6,52.2,146.4,52.2z M142.9,36.7l3.4,3.4l3.4-3.4l-3.4-3.4L142.9,36.7z"/>
			</g>
			<g>
				<path class="st12" d="M424.2,200.8c-1.3,0-2.6-0.5-3.5-1.5c-2-2-2-5.1,0-7.1l10-10c2-2,5.1-2,7.1,0c2,2,2,5.1,0,7.1l-10,10
					C426.8,200.3,425.5,200.8,424.2,200.8z"/>
			</g>
			<g>
				<path class="st3" d="M47.3,292.4c-1.3,0-2.6-0.5-3.5-1.5c-2-2-2-5.1,0-7.1l10-10c2-2,5.1-2,7.1,0c2,2,2,5.1,0,7.1l-10,10
					C49.9,291.9,48.6,292.4,47.3,292.4z"/>
			</g>
			<g>
				<path class="st15" d="M101,429.7c-1.3,0-2.6-0.5-3.5-1.5c-2-2-2-5.1,0-7.1l10-10c2-2,5.1-2,7.1,0c2,2,2,5.1,0,7.1l-10,10
					C103.6,429.2,102.3,429.7,101,429.7z"/>
			</g>
		</g>
	</g>
</g>
</svg>
