<?xml version="1.0" encoding="utf-8"?>
<!-- Generator: Adobe Illustrator 25.2.1, SVG Export Plug-In . SVG Version: 6.00 Build 0)  -->
<svg version="1.1" id="Camada_1" xmlns:svgjs="http://svgjs.com/svgjs"
	 xmlns="http://www.w3.org/2000/svg" xmlns:xlink="http://www.w3.org/1999/xlink" x="0px" y="0px" viewBox="0 0 512 512"
	 style="enable-background:new 0 0 512 512;" xml:space="preserve">
<style type="text/css">
	.st0{fill:url(#SVGID_1_);}
	.st1{opacity:0.1;fill:#0000CB;enable-background:new    ;}
	.st2{fill:#FFAA66;}
	.st3{fill:#FF9C33;}
	.st4{fill:#FFC498;}
	.st5{fill:#99A2E7;}
	.st6{fill:#424EB1;}
	.st7{fill:#F16E6E;}
	.st8{fill:#FF8C8C;}
	.st9{fill:#FFFFFF;}
	.st10{fill:#121B69;}
</style>
<g>
	<g>
		<g>
			
				<linearGradient id="SVGID_1_" gradientUnits="userSpaceOnUse" x1="53.5387" y1="58.968" x2="449.9937" y2="455.4231" gradientTransform="matrix(1 0 0 -1 0 514)">
				<stop  offset="0" style="stop-color:#FFF2ED;stop-opacity:0"/>
				<stop  offset="0.2938" style="stop-color:#FFE9DD;stop-opacity:0.373"/>
				<stop  offset="0.7874" style="stop-color:#FFD5BA"/>
			</linearGradient>
			<path class="st0" d="M485,269.4c-15.3-46.9-161.7-71.3-64-124.3C536.7,53.6,322.1-59.7,242.5,36.9
				C153.9,153.4,182.2,133,57,169.8c-10.3,3-19.6,9-26.3,17.4C-3,229.7,79.1,264,75.5,316.9c-4.3,63.4-24.9,204.2,67.4,194.7
				c65.2-6.8,95.4-82.4,134-129.5C331.7,315.3,520.8,379.1,485,269.4z"/>
		</g>
		<g>
			<g>
				<path class="st1" d="M460.1,435.7l-28-13.7V194.2c18.7-0.6,33.6-15.9,33.6-34.7c0-19.2-15.5-34.7-34.7-34.7h-52
					c-19.2,0-34.7,15.5-34.7,34.7v6.1h-45.6l-46.2,46.2h-86.9l-55.5,55.5V163.6l9.3,9.8c9.8,10.2,26.3-1.3,20.1-14l-35.5-72.7
					c-4.5-9.3-17.8-9.3-22.3,0l-35.5,72.7c-6.2,12.7,10.3,24.2,20.1,14l9.4-9.8v160.3l-3.4,3.4c-1.9,1.9-2.1,5-0.5,7.2l3.9,5.1v0.1
					h0.1l4.1,5.4c-5.2,8.1-8.9,17.1-11.1,26.7l-13.1,1.8C53,374,51,376.3,51,379v21.5c0,2.7,2,5.1,4.7,5.4l13.1,1.8
					c2.1,9.6,5.9,18.7,11.1,26.7l-8,10.6c-1.7,2.2-1.4,5.3,0.5,7.2l15.2,15.2c1.9,1.9,5,2.1,7.2,0.5l10.6-8
					c8.1,5.1,17.1,8.9,26.7,11.1l1.8,13.1c0.4,2.7,2.7,4.7,5.4,4.7h21.5c2.7,0,5.1-2,5.4-4.7L168,471c9.6-2.1,18.7-5.9,26.7-11.1
					l10.6,8c2.2,1.7,5.3,1.4,7.2-0.5l3.4-3.4h167.2l-9.8,9.4c-10.2,9.8,1.3,26.3,14,20.1l72.7-35.5
					C469.3,453.4,469.3,440.2,460.1,435.7L460.1,435.7z"/>
				<g>
					<path class="st2" d="M432,141.5v281.3h-29.3l-14.6-5l-14.6,5h-29.3l-14.6-5l-14.6,5h-29.2l-14.6-5l-14.6,5h-29.3l-14.6-5
						l-14.6,5h-29.3l-14.6-5l-14.6,5h-29.3V243.2l29.3-29.3l14.6-8.1l14.6-18.1H198l14.6,5l14.6-5h25.3l4-4l14.6-9.6l14.6-19.6
						l13-12.9H315l14.6,5l14.6-5h29.3l14.6,5l14.6-5L432,141.5z"/>
					<path class="st3" d="M261.5,330.7h81.7c19.2,0,34.7-15.5,34.7-34.7c0-19.2-15.5-34.7-34.7-34.7h-52
						c-19.2,0-34.7,15.5-34.7,34.7v29.7C256.5,328.4,258.8,330.7,261.5,330.7L261.5,330.7z"/>
					<path class="st3" d="M432,141.5v52.6c-0.4,0-0.7,0-1.1,0h-81.7c-2.8,0-5-2.2-5-5v-29.7c0-6.6,1.8-12.7,5-17.9H432z"/>
					<g>
						<path class="st4" d="M373.5,141.5h29.2V423h-29.2V141.5z"/>
						<path class="st2" d="M377.9,296c0,6.1-1.6,11.9-4.4,16.8v-33.7C376.3,284.1,377.9,289.8,377.9,296L377.9,296z"/>
						<path class="st2" d="M373.5,141.5h29.2v52.7h-29.2V141.5z"/>
						<path class="st4" d="M315,141.5h29.3V423H315V141.5z"/>
						<path class="st2" d="M344.3,261.3v69.4c-0.4,0-0.7,0-1.1,0H315v-69.4h28.2C343.5,261.2,343.9,261.2,344.3,261.3L344.3,261.3z"
							/>
						<path class="st4" d="M285.8,154.5V423h-29.3V183.8L285.8,154.5z"/>
						<path class="st2" d="M285.8,261.7v69h-24.3c-2.8,0-5-2.2-5-5V296C256.5,278.6,269.2,264.3,285.8,261.7z"/>
						<g>
							<path class="st4" d="M198,187.7h29.2V423H198V187.7z"/>
							<path class="st4" d="M168.7,187.7V423h-29.3v-209l26.2-26.2L168.7,187.7z"/>
						</g>
					</g>
				</g>
				<g>
					<g>
						<g>
							<g>
								<path class="st5" d="M460.1,433.9l-72.7,35.5c-12.7,6.2-24.2-10.3-14-20.1l9.8-9.4H207.1v-34.4h176.1l-9.8-9.4
									c-10.2-9.8,1.3-26.3,14-20.1l72.7,35.5C469.3,416.2,469.3,429.4,460.1,433.9L460.1,433.9z"/>
							</g>
						</g>
						<g>
							<g>
								<path class="st6" d="M104.2,62.7l35.5,72.7c6.2,12.7-10.3,24.2-20.1,14l-9.3-9.8v176.1H75.8V139.6l-9.4,9.8
									c-9.8,10.2-26.3-1.3-20.1-14l35.5-72.7C86.4,53.4,99.6,53.4,104.2,62.7L104.2,62.7z"/>
							</g>
						</g>
					</g>
					<g>
						<g>
							<path class="st7" d="M244.4,349.6l-13.1-1.8c-2.1-9.6-5.9-18.7-11.1-26.7l8-10.6c1.7-2.2,1.4-5.3-0.5-7.2l-15.2-15.2
								c-1.9-1.9-5-2.1-7.2-0.5l-10.6,8c-8.1-5.1-17.1-8.9-26.7-11.1l-1.8-13.1c-0.4-2.7-2.7-4.7-5.4-4.7h-21.5
								c-2.7,0-5.1,2-5.4,4.7l-1.8,13.1c-9.6,2.1-18.7,5.9-26.7,11.1l-10.6-8c-2.2-1.7-5.3-1.4-7.2,0.5l-15.2,15.2
								c-1.9,1.9-2.1,5-0.5,7.2l8,10.6c-5.2,8.1-8.9,17.1-11.1,26.7l-13.1,1.8C53,350,51,352.3,51,355v21.5c0,2.7,2,5.1,4.7,5.4
								l13.1,1.8c2.1,9.6,5.9,18.7,11.1,26.7l-8,10.6c-1.7,2.2-1.4,5.3,0.5,7.2l15.2,15.2c1.9,1.9,5,2.1,7.2,0.5l10.6-8
								c8.1,5.1,17.1,8.9,26.7,11.1l1.8,13.1c0.4,2.7,2.7,4.7,5.4,4.7h21.5c2.7,0,5.1-2,5.4-4.7L168,447c9.6-2.1,18.7-5.9,26.7-11.1
								l10.6,8c2.2,1.7,5.3,1.4,7.2-0.5l15.2-15.2c1.9-1.9,2.1-5,0.5-7.2l-8-10.6c5.1-8.1,8.9-17.1,11.1-26.7l13.1-1.8
								c2.7-0.4,4.7-2.7,4.7-5.4V355C249.1,352.3,247.1,350,244.4,349.6z"/>
							<circle class="st8" cx="150.1" cy="365.8" r="63"/>
							<circle class="st9" cx="150.1" cy="365.8" r="48.6"/>
						</g>
						<g>
							<g>
								<path class="st6" d="M133.4,370.8c-2.8,0-5-2.2-5-5v-0.1c0-2.8,2.2-5,5-5s5,2.2,5,5v0.1
									C138.4,368.6,136.1,370.8,133.4,370.8z"/>
							</g>
							<g>
								<path class="st6" d="M150.1,370.8c-2.8,0-5-2.2-5-5v-0.1c0-2.8,2.2-5,5-5s5,2.2,5,5v0.1
									C155.1,368.6,152.8,370.8,150.1,370.8z"/>
							</g>
							<g>
								<path class="st6" d="M166.8,370.8c-2.8,0-5-2.2-5-5v-0.1c0-2.8,2.2-5,5-5s5,2.2,5,5v0.1
									C171.8,368.6,169.5,370.8,166.8,370.8z"/>
							</g>
						</g>
					</g>
				</g>
				<g>
					<path class="st7" d="M349.3,170.2H431c19.2,0,34.7-15.5,34.7-34.7c0-19.2-15.5-34.7-34.7-34.7h-52c-19.2,0-34.7,15.5-34.7,34.7
						v29.7C344.3,168,346.5,170.2,349.3,170.2z"/>
					<g>
						<g>
							<path class="st9" d="M407.9,129.6h-35.8c-2.8,0-5-2.2-5-5s2.2-5,5-5h35.8c2.8,0,5,2.2,5,5S410.6,129.6,407.9,129.6z"/>
						</g>
						<g>
							<path class="st9" d="M430.1,149.4h-58c-2.8,0-5-2.2-5-5s2.2-5,5-5h58c2.8,0,5,2.2,5,5S432.8,149.4,430.1,149.4z"/>
						</g>
					</g>
				</g>
				<g>
					<g>
						<path class="st6" d="M261.5,306.7h81.7c19.2,0,34.7-15.5,34.7-34.7c0-19.2-15.5-34.7-34.7-34.7h-52
							c-19.2,0-34.7,15.5-34.7,34.7v29.7C256.5,304.4,258.8,306.7,261.5,306.7L261.5,306.7z"/>
						<g>
							<path class="st10" d="M462.3,407.2l-72.7-35.5c-7.9-3.9-16.9-1.5-21.9,5.7c-5,7.2-4.1,16.5,2.3,22.5l0.8,0.7H231.1
								c1.7-4,3.2-8.1,4.3-12.4l9.8-1.4c5.2-0.7,9-5.2,9-10.4V355c0-5.2-3.9-9.7-9-10.4h0l-9.8-1.4c-2-7.7-5.1-15.1-9.1-21.9
								l5.9-7.9c3.1-4.2,2.7-10.1-1-13.7l-15.2-15.2c-3.7-3.7-9.6-4.1-13.7-0.9l-7.9,5.9c-6.9-4-14.2-7.1-21.9-9.1l-1.4-9.8
								c-0.7-5.2-5.2-9-10.4-9h-21.5c-5.2,0-9.7,3.9-10.4,9l-1.4,9.8c-4.2,1.1-8.4,2.5-12.4,4.3v-39.5l52.5-52.5h84.8
								c1.3,0,2.6-0.5,3.5-1.5l44.7-44.7h38.5v18.7c0,5.5,4.5,10,10,10H431c21.9,0,39.7-17.8,39.7-39.7S452.8,95.8,431,95.8h-52
								c-21.9,0-39.7,17.8-39.7,39.7v1.1h-40.6c-1.3,0-2.6,0.5-3.5,1.5l-44.7,44.7h-84.8c-1.3,0-2.6,0.5-3.5,1.5l-46.9,46.9v-79
								l0.7,0.8c6.1,6.3,15.3,7.3,22.5,2.3c7.2-5,9.5-14,5.7-21.9l-35.5-72.7c-2.9-6-8.9-9.8-15.6-9.8c-6.7,0-12.7,3.7-15.6,9.8
								l-35.5,72.7c-3.8,7.9-1.5,16.9,5.7,21.9c7.2,5,16.5,4.1,22.5-2.3l0.7-0.8v118c0,2.8,2.2,5,5,5s5-2.2,5-5V139.6
								c0-2-1.2-3.9-3.1-4.6c-1.9-0.8-4.1-0.3-5.5,1.2l-9.4,9.8c-3.2,3.4-7.1,2.7-9.6,1c-2.5-1.8-4.5-5.1-2.4-9.3l35.5-72.7
								c1.3-2.6,3.8-4.1,6.6-4.1s5.4,1.6,6.6,4.1l35.5,72.7c2.1,4.2,0.1,7.6-2.4,9.3s-6.3,2.4-9.6-1l-9.3-9.8
								c-1.4-1.5-3.6-1.9-5.5-1.2c-1.9,0.8-3.1,2.6-3.1,4.6v149.6l-7.4-5.6c-4.2-3.1-10.1-2.7-13.7,1l-15.2,15.2
								c-3.7,3.7-4.1,9.6-0.9,13.7l5.9,7.9c-4,6.9-7.1,14.2-9.1,21.9l-9.8,1.4c-5.2,0.7-9,5.2-9,10.4v21.5c0,5.2,3.9,9.7,9,10.4
								l9.8,1.4c2,7.7,5.1,15.1,9.1,21.9l-5.9,7.9c-3.1,4.2-2.7,10.1,0.9,13.7l15.2,15.2c3.7,3.7,9.6,4.1,13.7,1l7.9-5.9
								c6.9,4,14.2,7.1,21.9,9.1l1.4,9.8c0.7,5.2,5.2,9,10.4,9h21.5c5.2,0,9.7-3.9,10.4-9l1.4-9.8c7.7-2,15.1-5.1,21.9-9.1l7.9,5.9
								c4.1,3.1,10.1,2.7,13.7-0.9l1.9-1.9h152.7l-0.8,0.7c-6.3,6.1-7.3,15.3-2.3,22.5c3.4,4.9,8.6,7.5,14.1,7.5
								c2.6,0,5.3-0.6,7.8-1.8l16.9-8.2c2.5-1.2,3.5-4.2,2.3-6.7s-4.2-3.5-6.7-2.3l-16.9,8.2c-4.2,2-7.6,0.1-9.3-2.4
								c-1.7-2.5-2.4-6.3,1-9.6l9.8-9.4c1.5-1.4,1.9-3.6,1.2-5.5s-2.6-3.1-4.6-3.1H228l3.3-3.3c3.7-3.7,4.1-9.6,0.9-13.7l-5.6-7.4
								h156.6c2,0,3.9-1.2,4.6-3.1c0.8-1.9,0.3-4.1-1.2-5.5l-9.8-9.4c-3.4-3.2-2.7-7.1-1-9.6c1.8-2.5,5.1-4.5,9.3-2.4l72.7,35.5
								c2.6,1.3,4.1,3.8,4.1,6.6s-1.6,5.4-4.1,6.6l-29.5,14.4c-2.5,1.2-3.5,4.2-2.3,6.7c0.9,1.8,2.6,2.8,4.5,2.8
								c0.7,0,1.5-0.2,2.2-0.5l29.5-14.4c6-2.9,9.8-8.9,9.8-15.6S468.3,410.1,462.3,407.2L462.3,407.2z M349.3,135.5
								c0-16.4,13.3-29.7,29.7-29.7h52c16.4,0,29.7,13.3,29.7,29.7s-13.3,29.7-29.7,29.7h-81.7L349.3,135.5z M208.4,439.9l-10.6-8
								c-1.7-1.3-3.9-1.4-5.7-0.2c-7.7,4.9-16.2,8.4-25.1,10.4c-2,0.5-3.6,2.1-3.9,4.2l-1.8,13.1c0,0.2-0.2,0.4-0.5,0.4h-21.5
								c-0.2,0-0.4-0.2-0.5-0.4l-1.8-13.1c-0.3-2.1-1.8-3.7-3.9-4.2c-8.9-2-17.4-5.5-25.1-10.4c-0.8-0.5-1.8-0.8-2.7-0.8
								c-1.1,0-2.1,0.3-3,1l-10.6,8c-0.2,0.1-0.5,0.1-0.6,0L76,424.7c-0.2-0.2-0.2-0.4,0-0.6l8-10.6c1.3-1.7,1.4-3.9,0.2-5.7
								c-4.9-7.7-8.4-16.2-10.4-25.1c-0.4-2-2.1-3.6-4.2-3.9L56.4,377c-0.2,0-0.4-0.2-0.4-0.5V355c0-0.2,0.2-0.4,0.4-0.5l13.1-1.8
								c2.1-0.3,3.7-1.8,4.2-3.9c2-8.9,5.5-17.4,10.4-25.1c1.1-1.8,1-4-0.2-5.7l-8-10.6c-0.1-0.2-0.1-0.5,0-0.6l15.2-15.2
								c0.2-0.2,0.4-0.2,0.6,0l10.6,8c1.7,1.3,3.9,1.4,5.7,0.2c7.7-4.9,16.2-8.4,25.1-10.4c2-0.5,3.6-2.1,3.9-4.2l1.8-13.1
								c0-0.2,0.2-0.4,0.5-0.4h21.5c0.2,0,0.4,0.2,0.5,0.4l1.8,13.1c0.3,2.1,1.8,3.7,3.9,4.2c8.9,2,17.4,5.5,25.1,10.4
								c1.8,1.1,4,1,5.7-0.2l10.6-8c0.2-0.1,0.5-0.1,0.6,0l15.2,15.2c0.2,0.2,0.2,0.4,0,0.6l-8,10.6c-1.3,1.7-1.4,3.9-0.2,5.7
								c4.9,7.7,8.4,16.2,10.4,25.1c0.4,2,2.1,3.6,4.2,3.9l13.1,1.8c0.2,0,0.4,0.2,0.4,0.5v21.5c0,0.2-0.2,0.4-0.4,0.5l-13.1,1.8
								c-2.1,0.3-3.7,1.8-4.2,3.9c-2,8.9-5.5,17.4-10.4,25.1c-1.1,1.8-1,4,0.2,5.7l8,10.6c0.1,0.2,0.1,0.5,0,0.6L209,439.9
								C208.8,440,208.5,440.1,208.4,439.9L208.4,439.9z"/>
							<path class="st10" d="M291.2,232.2c-21.9,0-39.7,17.8-39.7,39.7v29.7c0,5.5,4.5,10,10,10h81.7c21.9,0,39.7-17.8,39.7-39.7
								s-17.8-39.7-39.7-39.7L291.2,232.2z M372.9,272c0,16.4-13.3,29.7-29.7,29.7h-81.7V272c0-16.4,13.3-29.7,29.7-29.7h52
								C359.6,242.2,372.9,255.6,372.9,272L372.9,272z"/>
						</g>
					</g>
					<g>
						<g>
							<path class="st9" d="M320.1,266h-35.8c-2.8,0-5-2.2-5-5s2.2-5,5-5h35.8c2.8,0,5,2.2,5,5S322.8,266,320.1,266z"/>
						</g>
						<g>
							<path class="st9" d="M342.3,285.9h-58c-2.8,0-5-2.2-5-5s2.2-5,5-5h58c2.8,0,5,2.2,5,5S345.1,285.9,342.3,285.9z"/>
						</g>
					</g>
				</g>
			</g>
			<g>
				<path class="st7" d="M462.5,384.8c-0.5,0-0.9-0.1-1.4-0.2c-13.1-3.7-14.1-22.5-14.1-23.3c-0.1-2.3,1.3-4.3,3.5-5L461,353
					c1-0.3,2-0.3,3,0l10.5,3.3c2.2,0.7,3.6,2.7,3.5,5c0,0.8-1,19.6-14.1,23.3C463.4,384.7,463,384.8,462.5,384.8z M457.5,364.6
					c0.7,3.5,2.2,8,5,9.8c2.8-1.8,4.3-6.3,5-9.8l-5-1.5L457.5,364.6z"/>
			</g>
			<g>
				<path class="st3" d="M264.8,101.9c-0.5,0-0.9-0.1-1.4-0.2c-13.1-3.7-14.1-22.5-14.1-23.3c-0.1-2.3,1.3-4.3,3.5-5l10.5-3.3
					c1-0.3,2-0.3,3,0l10.5,3.3c2.2,0.7,3.6,2.7,3.5,5c0,0.8-1,19.6-14.1,23.3C265.7,101.9,265.2,101.9,264.8,101.9z M259.7,81.7
					c0.7,3.5,2.2,8,5,9.8c2.8-1.8,4.3-6.3,5-9.8l-5-1.5L259.7,81.7z"/>
			</g>
			<g>
				<path class="st6" d="M324.6,92.1c-1.3,0-2.6-0.5-3.5-1.5c-2-2-2-5.1,0-7.1l10-10c2-2,5.1-2,7.1,0c2,2,2,5.1,0,7.1l-10,10
					C327.2,91.6,325.9,92.1,324.6,92.1z"/>
			</g>
			<g>
				<path class="st6" d="M217,480.8c-1.3,0-2.6-0.5-3.5-1.5c-2-2-2-5.1,0-7.1l10-10c2-2,5.1-2,7.1,0c2,2,2,5.1,0,7.1l-10,10
					C219.5,480.4,218.2,480.8,217,480.8z"/>
			</g>
			<g>
				<path class="st3" d="M34.7,306.2c-1.3,0-2.6-0.5-3.5-1.5c-2-2-2-5.1,0-7.1l10-10c2-2,5.1-2,7.1,0c2,2,2,5.1,0,7.1l-10,10
					C37.3,305.7,36,306.2,34.7,306.2z"/>
			</g>
		</g>
	</g>
</g>
</svg>
