<?xml version="1.0" encoding="utf-8"?>
<!-- Generator: Adobe Illustrator 25.2.1, SVG Export Plug-In . SVG Version: 6.00 Build 0)  -->
<svg version="1.1" id="Camada_1" xmlns:svgjs="http://svgjs.com/svgjs"
	 xmlns="http://www.w3.org/2000/svg" xmlns:xlink="http://www.w3.org/1999/xlink" x="0px" y="0px" viewBox="0 0 512 512"
	 style="enable-background:new 0 0 512 512;" xml:space="preserve">
<style type="text/css">
	.st0{fill:url(#SVGID_1_);}
	.st1{opacity:0.1;fill:#0000CC;enable-background:new    ;}
	.st2{fill:#FF9D33;}
	.st3{fill:#070E47;}
	.st4{fill:#6C6CFF;}
	.st5{fill:#F16E6E;}
</style>
<g>
	<g>
		<g>
			
				<linearGradient id="SVGID_1_" gradientUnits="userSpaceOnUse" x1="514.74" y1="188.411" x2="-406.352" y2="392.431" gradientTransform="matrix(1 0 0 -1 0 514)">
				<stop  offset="7.000001e-03" style="stop-color:#FF8C8C"/>
				<stop  offset="0.992" style="stop-color:#FACECE;stop-opacity:0"/>
			</linearGradient>
			<path class="st0" d="M428.4,171.9c-8.4-8.4-18-14.9-28.7-19.8c-28-12.7-50.1-35.4-62.4-63.6C314.3,36.4,262.3,0,201.7,0
				C122.4-0.1,56.6,63.2,53.6,142.4c-1.3,33.9,8.9,65.4,26.9,91c22.9,32.4,28.8,73.8,17,111.7c-16.8,53.9-10.9,104.9,21,136.8
				c55.9,55.9,170.6,31.8,256.2-53.8C460.2,342.5,484.3,227.8,428.4,171.9L428.4,171.9z"/>
		</g>
		<g>
			<g>
				<path class="st1" d="M474.8,325.4v-28.8c0-2.8-2.2-5-5-5h-20c-1.6-5.9-4-11.6-6.9-16.8l14.1-14.1c2-2,2-5.1,0-7.1l-20.3-20.3
					c-2-2-5.1-2-7.1,0l-14.1,14.1c-5.2-3-10.8-5.3-16.8-6.9v-20c0-2.8-2.2-5-5-5H365c-2.8,0-5,2.2-5,5v20c-5.9,1.6-11.6,4-16.8,6.9
					l-14.1-14.1c-2-2-5.1-2-7.1,0l-20.3,20.3c-2,2-2,5.1,0,7.1l14.1,14.1c-3,5.2-5.3,10.9-6.9,16.8h-20c-2.8,0-5,2.2-5,5v28.8
					c0,2.8,2.2,5,5,5h20c1.6,5.9,4,11.6,6.9,16.8l-14.1,14.1c-2,2-2,5.1,0,7.1l20.3,20.3c2,2,5.1,2,7.1,0l14.1-14.1
					c5.2,3,10.9,5.3,16.8,6.9v20c0,2.8,2.2,5,5,5h28.8c2.8,0,5-2.2,5-5v-20c5.9-1.6,11.6-4,16.8-6.9l14.1,14.1c2,2,5.1,2,7.1,0
					l20.3-20.3c2-2,2-5.1,0-7.1l-14.1-14.1c3-5.2,5.3-10.9,6.9-16.8h20C472.6,330.4,474.8,328.1,474.8,325.4L474.8,325.4z
					 M379.3,348.5c-20.7,0-37.5-16.8-37.5-37.5s16.8-37.5,37.5-37.5s37.5,16.8,37.5,37.5S400.1,348.5,379.3,348.5z"/>
				<path class="st1" d="M292.8,431v-20c0-2.8-2.2-5-5-5h-14.3c-1.3-4.6-3.1-8.9-5.4-13l10.1-10.1c2-2,2-5.1,0-7.1l-14.1-14.1
					c-2-2-5.1-2-7.1,0l-10.1,10.1c-4-2.3-8.4-4.1-13-5.4v-14.3c0-2.8-2.2-5-5-5h-20c-2.8,0-5,2.2-5,5v14.3c-4.6,1.3-8.9,3.1-13,5.4
					l-10.1-10.1c-2-2-5.1-2-7.1,0l-14.1,14.1c-2,2-2,5.1,0,7.1l10.1,10.1c-2.3,4-4.1,8.4-5.4,13H150c-2.8,0-5,2.2-5,5v20
					c0,2.8,2.2,5,5,5h14.3c1.3,4.6,3.1,8.9,5.4,13l-10.1,10.1c-2,2-2,5.1,0,7.1l14.1,14.1c2,2,5.1,2,7.1,0l10.1-10.1
					c4,2.3,8.4,4.1,13,5.4v14.3c0,2.8,2.2,5,5,5h20c2.8,0,5-2.2,5-5v-14.3c4.6-1.3,8.9-3.1,13-5.4l10.1,10.1c2,2,5.1,2,7.1,0
					l14.1-14.1c2-2,2-5.1,0-7.1L268.1,449c2.3-4,4.1-8.4,5.4-13h14.3C290.6,436,292.8,433.8,292.8,431z M218.9,451
					c-16.5,0-29.9-13.4-29.9-29.9s13.4-29.9,29.9-29.9s29.9,13.4,29.9,29.9S235.4,451,218.9,451z"/>
				<path class="st1" d="M292.5,219.7v-41.8c0-2.8-2.2-5-5-5h-28.4c-2.2-7.9-5.3-15.4-9.3-22.4l20.1-20.1c2-2,2-5.1,0-7.1
					l-29.6-29.6c-2-2-5.1-2-7.1,0l-20.1,20.1c-7-4-14.5-7.1-22.4-9.3V76.1c0-2.8-2.2-5-5-5h-41.8c-2.8,0-5,2.2-5,5v28.4
					c-7.9,2.2-15.4,5.3-22.4,9.3L96.4,93.7c-2-2-5.1-2-7.1,0l-29.6,29.6c-2,2-2,5.1,0,7.1l20.1,20.1c-4,7-7.1,14.5-9.3,22.4H42.2
					c-2.8,0-5,2.2-5,5v41.8c0,2.8,2.2,5,5,5h28.4c2.2,7.9,5.3,15.4,9.3,22.4l-20.1,20.1c-2,2-2,5.1,0,7.1l29.6,29.6c2,2,5.1,2,7.1,0
					l20.1-20.1c7,4,14.5,7.1,22.4,9.3v28.4c0,2.8,2.2,5,5,5h41.8c2.8,0,5-2.2,5-5V293c7.9-2.2,15.4-5.3,22.4-9.3l20.1,20.1
					c2,2,5.1,2,7.1,0l29.6-29.6c2-2,2-5.1,0-7.1l-20.1-20.1c4-7,7.1-14.5,9.3-22.4h28.4C290.3,224.7,292.5,222.4,292.5,219.7
					L292.5,219.7z M164.8,255.3c-31.2,0-56.6-25.3-56.6-56.6s25.3-56.6,56.6-56.6s56.6,25.3,56.6,56.6S196.1,255.3,164.8,255.3z"/>
			</g>
			<g>
				<g>
					<path class="st2" d="M474.8,298.4v-28.8c0-2.8-2.2-5-5-5h-20c-1.6-5.9-4-11.6-6.9-16.8l14.1-14.1c2-2,2-5.1,0-7.1l-20.3-20.3
						c-2-2-5.1-2-7.1,0l-14.1,14.1c-5.2-3-10.8-5.3-16.8-6.9v-20c0-2.8-2.2-5-5-5H365c-2.8,0-5,2.2-5,5v20c-5.9,1.6-11.6,4-16.8,6.9
						l-14.1-14.1c-2-2-5.1-2-7.1,0l-20.3,20.3c-2,2-2,5.1,0,7.1l14.1,14.1c-3,5.2-5.3,10.8-6.9,16.8h-20c-2.8,0-5,2.2-5,5v28.8
						c0,2.8,2.2,5,5,5h20c1.6,5.9,4,11.6,6.9,16.8l-14.1,14.1c-2,2-2,5.1,0,7.1l20.3,20.3c2,2,5.1,2,7.1,0l14.1-14.1
						c5.2,3,10.9,5.3,16.8,6.9v20c0,2.8,2.2,5,5,5h28.8c2.8,0,5-2.2,5-5v-20c5.9-1.6,11.6-4,16.8-6.9l14.1,14.1c2,2,5.1,2,7.1,0
						l20.3-20.3c2-2,2-5.1,0-7.1l-14.1-14.1c3-5.2,5.3-10.9,6.9-16.8h20C472.6,303.4,474.8,301.1,474.8,298.4L474.8,298.4z
						 M379.3,321.5c-20.7,0-37.5-16.8-37.5-37.5s16.8-37.5,37.5-37.5s37.5,16.8,37.5,37.5S400.1,321.5,379.3,321.5z"/>
					<g>
						<path class="st3" d="M393.7,384.5H365c-5.5,0-10-4.5-10-10v-16.2c-3.7-1.2-7.4-2.7-10.9-4.5l-11.5,11.5
							c-1.9,1.9-4.4,2.9-7.1,2.9h0c-2.7,0-5.2-1-7.1-2.9l-20.3-20.3c-1.9-1.9-2.9-4.4-2.9-7.1c0-2.7,1-5.2,2.9-7.1l11.5-11.5
							c-1.8-3.5-3.3-7.1-4.5-10.9h-16.2c-5.5,0-10-4.5-10-10v-28.8c0-5.5,4.5-10,10-10h16.2c1.2-3.7,2.7-7.4,4.5-10.9l-11.5-11.5
							c-3.9-3.9-3.9-10.2,0-14.1l20.3-20.3c3.9-3.9,10.2-3.9,14.1,0l11.5,11.5c3.5-1.8,7.1-3.3,10.9-4.5v-16.2c0-5.5,4.5-10,10-10
							h28.8c5.5,0,10,4.5,10,10v16.2c3.7,1.2,7.4,2.7,10.9,4.5l11.5-11.5c3.9-3.9,10.2-3.9,14.1,0l20.3,20.3
							c3.9,3.9,3.9,10.2,0,14.1l-11.5,11.5c1.8,3.5,3.3,7.1,4.5,10.9h16.2c5.5,0,10,4.5,10,10v28.8c0,5.5-4.5,10-10,10h-16.2
							c-1.2,3.7-2.7,7.4-4.5,10.9l11.5,11.5c1.9,1.9,2.9,4.4,2.9,7.1c0,2.7-1,5.2-2.9,7.1l-20.3,20.3c-1.9,1.9-4.4,2.9-7.1,2.9
							s-5.2-1-7.1-2.9l-11.5-11.5c-3.5,1.8-7.1,3.3-10.9,4.5v16.2C403.7,380,399.2,384.5,393.7,384.5L393.7,384.5z M343.2,342.6
							c0.8,0,1.7,0.2,2.5,0.7c4.9,2.8,10.2,5,15.6,6.5c2.2,0.6,3.7,2.6,3.7,4.8v20h28.8v-20c0-2.3,1.5-4.2,3.7-4.8
							c5.4-1.5,10.7-3.7,15.6-6.5c2-1.1,4.4-0.8,6,0.8l14.1,14.1l20.3-20.3l-14.1-14.1c-1.6-1.6-1.9-4.1-0.8-6
							c2.8-4.9,5-10.2,6.5-15.6c0.6-2.2,2.6-3.7,4.8-3.7h20v-28.8h-20c-2.3,0-4.2-1.5-4.8-3.7c-1.5-5.4-3.7-10.7-6.5-15.6
							c-1.1-2-0.8-4.4,0.8-6l14.1-14.1l-20.3-20.3L419,223.9c-1.6,1.6-4.1,1.9-6,0.8c-4.9-2.8-10.2-5-15.6-6.5
							c-2.2-0.6-3.7-2.6-3.7-4.8v-20H365v20c0,2.3-1.5,4.2-3.7,4.8c-5.4,1.5-10.7,3.7-15.6,6.5c-2,1.1-4.4,0.8-6-0.8l-14.1-14.1
							l-20.3,20.3l14.1,14.1c1.6,1.6,1.9,4.1,0.8,6c-2.8,4.9-5,10.2-6.5,15.6c-0.6,2.2-2.6,3.7-4.8,3.7h-20v28.8h20
							c2.3,0,4.2,1.5,4.8,3.7c1.5,5.4,3.7,10.7,6.5,15.6c1.1,2,0.8,4.4-0.8,6l-14.1,14.1l20.3,20.3l14.1-14.1
							C340.6,343.1,341.9,342.6,343.2,342.6L343.2,342.6z M379.3,326.5c-23.4,0-42.5-19.1-42.5-42.5s19.1-42.5,42.5-42.5
							s42.5,19.1,42.5,42.5c0,4.3-0.6,8.5-1.9,12.6c-0.8,2.6-3.6,4.1-6.3,3.3c-2.6-0.8-4.1-3.6-3.3-6.3c1-3.1,1.5-6.4,1.5-9.7
							c0-17.9-14.6-32.5-32.5-32.5s-32.5,14.6-32.5,32.5s14.6,32.5,32.5,32.5c3.6,0,7.1-0.6,10.5-1.7c2.6-0.9,5.5,0.5,6.3,3.1
							s-0.5,5.5-3.1,6.3C388.6,325.7,384,326.5,379.3,326.5z"/>
					</g>
				</g>
				<g>
					<path class="st4" d="M292.8,404v-20c0-2.8-2.2-5-5-5h-14.3c-1.3-4.6-3.1-8.9-5.4-13l10.1-10.1c2-2,2-5.1,0-7.1l-14.1-14.1
						c-2-2-5.1-2-7.1,0l-10.1,10.1c-4-2.3-8.4-4.1-13-5.4v-14.3c0-2.8-2.2-5-5-5h-20c-2.8,0-5,2.2-5,5v14.3c-4.6,1.3-8.9,3.1-13,5.4
						l-10.1-10.1c-2-2-5.1-2-7.1,0l-14.1,14.1c-2,2-2,5.1,0,7.1l10.1,10.1c-2.3,4-4.1,8.4-5.4,13H150c-2.8,0-5,2.2-5,5v20
						c0,2.8,2.2,5,5,5h14.3c1.3,4.6,3.1,8.9,5.4,13l-10.1,10.1c-2,2-2,5.1,0,7.1l14.1,14.1c2,2,5.1,2,7.1,0l10.1-10.1
						c4,2.3,8.4,4.1,13,5.4v14.3c0,2.8,2.2,5,5,5h20c2.8,0,5-2.2,5-5v-14.3c4.6-1.3,8.9-3.1,13-5.4l10.1,10.1c2,2,5.1,2,7.1,0
						l14.1-14.1c2-2,2-5.1,0-7.1L268.1,422c2.3-4,4.1-8.4,5.4-13h14.3C290.6,409,292.8,406.8,292.8,404z M218.9,424
						c-16.5,0-29.9-13.4-29.9-29.9s13.4-29.9,29.9-29.9s29.9,13.4,29.9,29.9S235.4,424,218.9,424z"/>
					<g>
						<path class="st3" d="M228.9,472.9h-20c-5.5,0-10-4.5-10-10v-10.6c-2.4-0.8-4.8-1.8-7.1-2.9l-7.5,7.5c-3.9,3.9-10.2,3.9-14.1,0
							l-14.1-14.1c-3.9-3.9-3.9-10.2,0-14.1l7.5-7.5c-1.1-2.3-2.1-4.6-2.9-7.1H150c-5.5,0-10-4.5-10-10v-20c0-5.5,4.5-10,10-10h10.6
							c0.8-2.4,1.8-4.8,2.9-7.1l-7.5-7.5c-3.9-3.9-3.9-10.2,0-14.1l14.1-14.1c3.9-3.9,10.2-3.9,14.1,0l7.5,7.5
							c2.3-1.1,4.6-2.1,7.1-2.9v-10.6c0-5.5,4.5-10,10-10h20c5.5,0,10,4.5,10,10v10.6c2.4,0.8,4.8,1.8,7.1,2.9l7.5-7.5
							c3.9-3.9,10.2-3.9,14.1,0l14.1,14.1c3.9,3.9,3.9,10.2,0,14.1l-7.5,7.5c1.1,2.3,2.1,4.6,2.9,7.1h10.6c5.5,0,10,4.5,10,10v20
							c0,5.5-4.5,10-10,10h-10.6c-0.8,2.4-1.8,4.8-2.9,7.1l7.5,7.5c3.9,3.9,3.9,10.2,0,14.1l-14.1,14.1c-3.9,3.9-10.2,3.9-14.1,0
							l-7.5-7.5c-2.3,1.1-4.6,2.1-7.1,2.9v10.6C238.9,468.4,234.4,472.9,228.9,472.9L228.9,472.9z M190.9,438.2
							c0.8,0,1.7,0.2,2.5,0.7c3.7,2.1,7.7,3.8,11.8,4.9c2.2,0.6,3.7,2.6,3.7,4.8v14.3h20v-14.3c0-2.3,1.5-4.2,3.7-4.8
							c4.1-1.1,8.1-2.8,11.8-4.9c2-1.1,4.4-0.8,6,0.8l10.1,10.1l14.1-14.1l-10.1-10.1c-1.6-1.6-1.9-4.1-0.8-6
							c2.1-3.7,3.8-7.7,4.9-11.8c0.6-2.2,2.6-3.7,4.8-3.7h14.3v-20h-14.3c-2.3,0-4.2-1.5-4.8-3.7c-1.1-4.1-2.8-8.1-4.9-11.8
							c-1.1-2-0.8-4.4,0.8-6l10.1-10.1l-14.1-14.1l-10.1,10.1c-1.6,1.6-4.1,1.9-6,0.8c-3.7-2.1-7.7-3.8-11.8-4.9
							c-2.2-0.6-3.7-2.6-3.7-4.8v-14.3h-20v14.3c0,2.3-1.5,4.2-3.7,4.8c-4.1,1.1-8.1,2.8-11.8,4.9c-2,1.1-4.4,0.8-6-0.8l-10.1-10.1
							l-14.1,14.1l10.1,10.1c1.6,1.6,1.9,4.1,0.8,6c-2.1,3.7-3.8,7.7-4.9,11.8c-0.6,2.2-2.6,3.7-4.8,3.7H150v20h14.3
							c2.3,0,4.2,1.5,4.8,3.7c1.1,4.1,2.8,8.1,4.9,11.8c1.1,2,0.8,4.4-0.8,6l-10.1,10.1l14.1,14.1l10.1-10.1
							C188.4,438.7,189.6,438.2,190.9,438.2L190.9,438.2z M218.9,429c-19.3,0-34.9-15.7-34.9-34.9c0-19.3,15.7-34.9,34.9-34.9
							s34.9,15.7,34.9,34.9C253.8,413.3,238.2,429,218.9,429z M218.9,369.1c-13.7,0-24.9,11.2-24.9,24.9s11.2,24.9,24.9,24.9
							s24.9-11.2,24.9-24.9S232.7,369.1,218.9,369.1z"/>
					</g>
				</g>
				<g>
					<path class="st5" d="M292.5,192.7v-41.8c0-2.8-2.2-5-5-5h-28.4c-2.2-7.9-5.3-15.4-9.3-22.4l20.1-20.1c2-2,2-5.1,0-7.1
						l-29.6-29.6c-2-2-5.1-2-7.1,0l-20.1,20.1c-7-4-14.5-7.1-22.4-9.3V49.1c0-2.8-2.2-5-5-5h-41.8c-2.8,0-5,2.2-5,5v28.4
						c-7.9,2.2-15.4,5.3-22.4,9.3L96.4,66.7c-2-2-5.1-2-7.1,0L59.8,96.3c-2,2-2,5.1,0,7.1l20.1,20.1c-4,7-7.1,14.5-9.3,22.4H42.2
						c-2.8,0-5,2.2-5,5v41.8c0,2.8,2.2,5,5,5h28.4c2.2,7.9,5.3,15.4,9.3,22.4l-20.1,20.1c-2,2-2,5.1,0,7.1l29.6,29.6
						c2,2,5.1,2,7.1,0l20.1-20.1c7,4,14.5,7.1,22.4,9.3v28.4c0,2.8,2.2,5,5,5h41.8c2.8,0,5-2.2,5-5V266c7.9-2.2,15.4-5.3,22.4-9.3
						l20.1,20.1c2,2,5.1,2,7.1,0l29.6-29.6c2-2,2-5.1,0-7.1l-20.1-20.1c4-7,7.1-14.5,9.3-22.4h28.4
						C290.3,197.7,292.5,195.4,292.5,192.7L292.5,192.7z M164.8,228.3c-31.2,0-56.6-25.3-56.6-56.6s25.3-56.6,56.6-56.6
						s56.6,25.3,56.6,56.6S196.1,228.3,164.8,228.3z"/>
					<g>
						<path class="st3" d="M185.8,304.4h-41.8c-5.5,0-10-4.5-10-10v-24.6c-5.7-1.8-11.2-4.1-16.5-6.9L100,280.3
							c-3.9,3.9-10.2,3.9-14.1,0l-29.6-29.6c-3.9-3.9-3.9-10.2,0-14.1l17.4-17.4c-2.8-5.3-5.1-10.8-6.9-16.5H42.2
							c-5.5,0-10-4.5-10-10v-41.8c0-5.5,4.5-10,10-10h24.6c1.8-5.7,4.1-11.2,6.9-16.5l-17.4-17.4c-3.9-3.9-3.9-10.2,0-14.1
							l29.6-29.6c3.9-3.9,10.2-3.9,14.1,0l17.4,17.4c5.3-2.8,10.8-5.1,16.5-6.9V49.1c0-5.5,4.5-10,10-10h41.8c5.5,0,10,4.5,10,10
							v24.6c5.7,1.8,11.2,4.1,16.5,6.9l17.4-17.4c3.9-3.9,10.2-3.9,14.1,0l29.6,29.6c3.9,3.9,3.9,10.2,0,14.1L256,124.3
							c2.8,5.3,5.1,10.8,6.9,16.5h24.6c5.5,0,10,4.5,10,10v41.8c0,5.5-4.5,10-10,10h-24.6c-1.8,5.7-4.1,11.2-6.9,16.5l17.4,17.4
							c3.9,3.9,3.9,10.2,0,14.1l-29.6,29.6c-1.9,1.9-4.4,2.9-7.1,2.9s-5.2-1-7.1-2.9l-17.4-17.4c-5.3,2.8-10.8,5.1-16.5,6.9v24.6
							C195.8,299.9,191.3,304.4,185.8,304.4L185.8,304.4z M116.5,251.7c0.8,0,1.7,0.2,2.5,0.7c6.7,3.8,13.9,6.8,21.3,8.8
							c2.2,0.6,3.7,2.6,3.7,4.8v28.4h41.8V266c0-2.3,1.5-4.2,3.7-4.8c7.4-2,14.6-5,21.3-8.8c2-1.1,4.4-0.8,6,0.8l20.1,20.1
							l29.6-29.6l-20.1-20.1c-1.6-1.6-1.9-4.1-0.8-6c3.8-6.7,6.8-13.9,8.8-21.3c0.6-2.2,2.6-3.7,4.8-3.7h28.4v-41.8h-28.4
							c-2.3,0-4.2-1.5-4.8-3.7c-2-7.4-5-14.6-8.8-21.3c-1.1-2-0.8-4.4,0.8-6l20.1-20.1l-29.6-29.6l-20.1,20.1
							c-1.6,1.6-4.1,1.9-6,0.8c-6.7-3.8-13.9-6.8-21.3-8.8c-2.2-0.6-3.7-2.6-3.7-4.8V49.1h-41.8v28.4c0,2.3-1.5,4.2-3.7,4.8
							c-7.4,2-14.6,5-21.3,8.8c-2,1.1-4.4,0.8-6-0.8L92.9,70.2L63.3,99.8l20.1,20.1c1.6,1.6,1.9,4.1,0.8,6
							c-3.8,6.7-6.8,13.9-8.8,21.3c-0.6,2.2-2.6,3.7-4.8,3.7H42.2v41.8h28.4c2.3,0,4.2,1.5,4.8,3.7c2,7.4,5,14.6,8.8,21.3
							c1.1,2,0.8,4.4-0.8,6l-20.1,20.1l29.6,29.6l20.1-20.1C113.9,252.2,115.2,251.7,116.5,251.7L116.5,251.7z M164.8,233.3
							c-10.3,0-20.6-2.6-29.6-7.6c-2.4-1.3-3.3-4.4-2-6.8s4.4-3.3,6.8-2c7.5,4.1,16.1,6.3,24.8,6.3c28.4,0,51.6-23.1,51.6-51.6
							s-23.1-51.6-51.6-51.6s-51.6,23.1-51.6,51.6c0,8,1.8,15.7,5.3,22.9c1.2,2.5,0.2,5.5-2.3,6.7c-2.5,1.2-5.5,0.2-6.7-2.3
							c-4.2-8.5-6.4-17.7-6.4-27.3c0-33.9,27.6-61.6,61.6-61.6c33.9,0,61.6,27.6,61.6,61.6C226.4,205.7,198.8,233.3,164.8,233.3
							L164.8,233.3z"/>
					</g>
				</g>
			</g>
			<g>
				<path class="st4" d="M379.3,105.3c-7.3,0-13.2-5.9-13.2-13.2s5.9-13.2,13.2-13.2s13.2,5.9,13.2,13.2S386.6,105.3,379.3,105.3z
					 M379.3,88.9c-1.8,0-3.2,1.4-3.2,3.2s1.4,3.2,3.2,3.2s3.2-1.4,3.2-3.2S381.1,88.9,379.3,88.9z"/>
			</g>
			<g>
				<path class="st2" d="M379.3,477.3c-7.3,0-13.2-5.9-13.2-13.2c0-7.3,5.9-13.2,13.2-13.2s13.2,5.9,13.2,13.2
					S386.6,477.3,379.3,477.3z M379.3,460.9c-1.8,0-3.2,1.4-3.2,3.2s1.4,3.2,3.2,3.2s3.2-1.4,3.2-3.2S381.1,460.9,379.3,460.9z"/>
			</g>
			<g>
				<path class="st4" d="M218.9,49.1c-7.3,0-13.2-5.9-13.2-13.2c0-7.3,5.9-13.2,13.2-13.2s13.2,5.9,13.2,13.2S226.2,49.1,218.9,49.1
					z M218.9,32.6c-1.8,0-3.2,1.4-3.2,3.2s1.4,3.2,3.2,3.2s3.2-1.4,3.2-3.2S220.7,32.6,218.9,32.6z"/>
			</g>
			<g>
				<path class="st4" d="M329.1,143c-1.3,0-2.6-0.5-3.5-1.5l-11.3-11.3c-2-2-2-5.1,0-7.1l11.3-11.3c2-2,5.1-2,7.1,0l11.3,11.3
					c0.9,0.9,1.5,2.2,1.5,3.5c0,1.3-0.5,2.6-1.5,3.5l-11.3,11.3C331.6,142.5,330.4,143,329.1,143z M324.9,126.7l4.2,4.2l4.2-4.2
					l-4.2-4.2L324.9,126.7z"/>
			</g>
			<g>
				<path class="st2" d="M58.7,350.2c-1.3,0-2.6-0.5-3.5-1.5l-11.3-11.3c-2-2-2-5.1,0-7.1l11.3-11.3c2-2,5.1-2,7.1,0l11.3,11.3
					c0.9,0.9,1.5,2.2,1.5,3.5s-0.5,2.6-1.5,3.5l-11.3,11.3C61.3,349.7,60,350.2,58.7,350.2z M54.5,333.9l4.2,4.2l4.2-4.2l-4.2-4.2
					L54.5,333.9z"/>
			</g>
		</g>
	</g>
</g>
</svg>
