<?xml version="1.0" encoding="utf-8"?>
<!-- Generator: Adobe Illustrator 25.2.1, SVG Export Plug-In . SVG Version: 6.00 Build 0)  -->
<svg version="1.1" id="Camada_1" xmlns:svgjs="http://svgjs.com/svgjs"
	 xmlns="http://www.w3.org/2000/svg" xmlns:xlink="http://www.w3.org/1999/xlink" x="0px" y="0px" viewBox="0 0 520 520"
	 style="enable-background:new 0 0 386.6 388.5;" xml:space="preserve">
<style type="text/css">
	.st0{fill:#A72121;stroke:#A72121;stroke-width:9;stroke-miterlimit:10;}
	.st1{fill:#222E8F;stroke:#222E8F;stroke-width:9;stroke-miterlimit:10;}
	.st2{fill:#070e47;stroke:#070e47;stroke-width:0;stroke-miterlimit:10;}
	.st3{fill:#070e47;stroke:#070e47;stroke-width:0;stroke-miterlimit:10;}
</style>
<g>
	<g>
		<g>
			<path class="st0" d="M173.1,271.5c3.3,0,6.3-2.1,7.2-5.4l40.4-141.4c1.1-4-1.2-8.1-5.2-9.3c-4-1.1-8.1,1.2-9.3,5.2L165.9,262
				c-1.1,4,1.2,8.1,5.2,9.3C171.7,271.4,172.4,271.5,173.1,271.5z"/>
			<path class="st1" d="M243.6,249.2c1.5,1.4,3.3,2.1,5.2,2.1c2,0,3.9-0.8,5.4-2.3l48.5-50.5c2.8-2.9,2.8-7.5,0-10.4l-48.5-50.5
				c-2.9-3-7.6-3.1-10.6-0.2c-3,2.9-3.1,7.6-0.2,10.6l43.5,45.3l-43.5,45.3C240.5,241.6,240.6,246.4,243.6,249.2L243.6,249.2z"/>
			<path class="st1" d="M143,137.4c-3-2.9-7.7-2.8-10.6,0.2l-48.5,50.5c-2.8,2.9-2.8,7.5,0,10.4l48.5,50.5c1.5,1.5,3.4,2.3,5.4,2.3
				c1.9,0,3.7-0.7,5.2-2.1c3-2.9,3.1-7.6,0.2-10.6l-43.5-45.3l43.5-45.3C146.1,145,146,140.2,143,137.4L143,137.4z"/>
			<path class="st2" d="M509.8,433.5l-72.4-72.4c-2.9-2.9-7.7-2.9-10.6,0l-7.8,7.8l-28.8-28.8l7.8-7.8c2.9-2.9,2.9-7.7,0-10.6
				l-35.2-35.2c7.2-13.1,12.9-27,16.9-41.4c8.6-31,9.3-64,2-95.4c-0.9-4-5-6.6-9-5.6c-4,0.9-6.6,5-5.6,9
				c14,60.4-3.9,122.7-47.7,166.5c-34.8,34.8-80.5,52.2-126.1,52.2c-45.7,0-91.4-17.4-126.1-52.2C-2.4,250-2.4,136.9,67.2,67.3
				s182.7-69.6,252.3,0c15.7,15.7,28.2,33.9,37.1,54c1.7,3.8,6.1,5.5,9.9,3.8s5.5-6.1,3.8-9.9c-9.6-21.8-23.1-41.5-40.2-58.5
				c-75.4-75.4-198.1-75.4-273.5,0s-75.4,198.1,0,273.5c37.7,37.7,87.2,56.6,136.8,56.6c32.1,0,64.3-7.9,93.2-23.8l35.2,35.2
				c1.5,1.5,3.4,2.2,5.3,2.2s3.8-0.7,5.3-2.2l7.8-7.8l28.8,28.8l-7.8,7.8c-2.9,2.9-2.9,7.7,0,10.6l21.6,21.6
				c1.5,1.5,3.4,2.2,5.3,2.2s3.8-0.7,5.3-2.2c2.9-2.9,2.9-7.7,0-10.6L377,432.1l55.1-55.1l67.1,67.1c2.9,2.9,7.7,2.9,10.6,0
				C512.7,441.1,512.7,436.4,509.8,433.5L509.8,433.5z M326.9,382.1l-27.2-27.2c10.7-7.1,20.9-15.3,30.4-24.8
				c9.3-9.3,17.6-19.5,24.7-30.4l27.3,27.3L326.9,382.1z M350.7,379.5l28.8-28.8l28.8,28.8l-28.8,28.8L350.7,379.5z"/>
			<path class="st3" d="M418,473.2c-2.9-2.9-7.7-2.9-10.6,0s-2.9,7.7,0,10.6l26,26c1.5,1.5,3.4,2.2,5.3,2.2s3.8-0.7,5.3-2.2
				c2.9-2.9,2.9-7.7,0-10.6L418,473.2z"/>
			<path class="st2" d="M60,163.6c-4.1-0.7-7.9,2.1-8.6,6.2c-7.6,45.7,7.5,92.5,40.2,125.3c27.2,27.2,63.3,42.1,101.7,42.1
				s74.5-15,101.7-42.1c27.2-27.2,42.1-63.3,42.1-101.7s-15-74.5-42.1-101.7c-27.2-27.2-63.3-42.1-101.7-42.1s-74.5,15-101.7,42.1
				c-12.5,12.5-22.4,26.9-29.6,42.8c-1.7,3.8,0,8.2,3.8,9.9s8.2,0,9.9-3.8c6.4-14.3,15.3-27.2,26.5-38.4
				c24.3-24.3,56.7-37.7,91.1-37.7s66.8,13.4,91.1,37.7s37.7,56.7,37.7,91.1s-13.4,66.8-37.7,91.1s-56.7,37.7-91.1,37.7
				s-66.8-13.4-91.1-37.7c-29.3-29.3-42.8-71.3-36-112.2C66.9,168.1,64.1,164.2,60,163.6L60,163.6z"/>
		</g>
	</g>
</g>
</svg>
