<?xml version="1.0" encoding="utf-8"?>
<!-- Generator: Adobe Illustrator 25.2.1, SVG Export Plug-In . SVG Version: 6.00 Build 0)  -->
<svg version="1.1" id="Camada_1" xmlns:svgjs="http://svgjs.com/svgjs"
	 xmlns="http://www.w3.org/2000/svg" xmlns:xlink="http://www.w3.org/1999/xlink" x="0px" y="0px" viewBox="0 0 512 512"
	 style="enable-background:new 0 0 512 512;" xml:space="preserve">
<style type="text/css">
	.st0{fill:url(#SVGID_1_);}
	.st1{opacity:0.1;fill:#0000CC;enable-background:new    ;}
	.st2{fill:#F16E6E;}
	.st3{fill:#727EDA;}
	.st4{fill:#99A2E7;}
	.st5{fill:#FFAB66;}
	.st6{fill:#FFC599;}
	.st7{fill:#070E47;}
	.st8{fill:#0000CC;}
	.st9{fill:#FF8C8C;}
	.st10{fill:#FF8B00;}
	.st11{fill:#FF9D33;}
</style>
<g>
	<g>
		
			<linearGradient id="SVGID_1_" gradientUnits="userSpaceOnUse" x1="518.3473" y1="492.1337" x2="-75.6227" y2="-77.8383" gradientTransform="matrix(1 0 0 -1 0 514)">
			<stop  offset="7.000001e-03" style="stop-color:#B0B6EE"/>
			<stop  offset="0.992" style="stop-color:#CCD1F8;stop-opacity:0"/>
		</linearGradient>
		<path class="st0" d="M512,256c0-27.6-12.5-53.5-34.3-75.8c-15.2-15.5-27.9-33.3-37.5-52.8C409.3,65.2,356.6,24.2,296.8,24.2
			c-42.5,0-81.4,20.7-111.4,55c-19.9,22.7-45,40.1-73,51.4C44.6,157.8,0,203.8,0,256s44.6,98.2,112.4,125.4
			c28,11.2,53.1,28.7,73,51.4c30,34.3,68.9,55,111.4,55c59.8,0,112.4-41,143.3-103.2c9.7-19.5,22.3-37.2,37.5-52.8
			C499.5,309.5,512,283.6,512,256z"/>
		<g>
			<g>
				<path class="st1" d="M432.2,358.1c-5.2,0-9.7,3.2-11.6,7.6h-47l33-33c1.4,0.6,3,0.9,4.7,0.9c7,0,12.6-5.7,12.6-12.6
					s-5.7-12.6-12.6-12.6s-12.6,5.7-12.6,12.6c0,1.7,0.3,3.2,0.9,4.7l-62.1,62.1H300v-28.9c0-5.5-4.5-10-10-10h-0.7l26.9-33.7
					c0.1,0.1,0.2,0.3,0.3,0.4l17.1,17.1c-0.7,1.5-1,3.2-1,5c0,7,5.7,12.6,12.6,12.6s12.6-5.7,12.6-12.6c0-7-5.7-12.6-12.6-12.6
					c-1.5,0-3,0.3-4.3,0.8l-17.4-17.4c-0.4-0.4-0.9-0.7-1.4-0.9l13-16.3c5.8-7.3,5.8-17.6,0-24.9l-9.6-12h70.9
					c1.9,4.5,6.4,7.6,11.6,7.6c7,0,12.6-5.7,12.6-12.6s-5.7-12.6-12.6-12.6c-5.2,0-9.7,3.2-11.6,7.6h-72.7c-1.8,0-3.4,1-4.3,2.4
					l-30.3-38h0.7c5.1,0,9.3-3.8,9.9-8.8c0.5,0.1,1,0.2,1.5,0.2h50.2c1.9,4.5,6.4,7.6,11.6,7.6c7,0,12.6-5.7,12.6-12.6
					s-5.7-12.6-12.6-12.6c-5.2,0-9.7,3.2-11.6,7.6h-50.2c-0.5,0-0.9,0.1-1.4,0.2v-36.7c0.4,0.1,0.9,0.2,1.4,0.2h95.2
					c1.9,4.5,6.4,7.6,11.6,7.6c7,0,12.6-5.7,12.6-12.6s-5.7-12.6-12.6-12.6c-5.2,0-9.7,3.2-11.6,7.6h-95.2c-0.5,0-0.9,0.1-1.4,0.2
					v-1.7c0-5.5-4.5-10-10-10h-27.7c-0.1-3.9-0.7-7.9-1.9-11.9c-1.2-4.1-2.9-7.9-5.1-11.3h107.2c1.9,4.5,6.4,7.6,11.6,7.6
					c7,0,12.6-5.7,12.6-12.7s-5.7-12.7-12.6-12.7c-5.2,0-9.7,3.2-11.6,7.7H252.3c-1.5,0-2.8,0.6-3.7,1.6
					c-11.6-11.4-28.8-16.4-45.5-11.5c-15.4,4.5-26.6,16.3-31,30.5c-3.2-0.5-6.5-0.8-9.8-0.8c-34.6,0-62.7,28.1-62.7,62.7
					c0,4.8,0.6,9.6,1.6,14.1c-21.1,10.1-35.6,31.6-35.6,56.5c0,23.5,13,44,32.2,54.7c-2.2,6.6-3.4,13.7-3.4,21
					c0,31.2,21.6,57.4,50.7,64.3c2.1,11.3,7.5,22.1,16.3,30.9c7.7,7.7,17,12.8,26.8,15.4c4.1,17.9,20.2,31.3,39.3,31.3
					c14.2,0,26.7-7.4,33.9-18.5h101c1.9,4.5,6.4,7.6,11.6,7.6c7,0,12.6-5.7,12.6-12.6s-5.7-12.6-12.6-12.6c-5.2,0-9.7,3.2-11.6,7.6
					h-96.4c1.2-3.8,1.8-7.7,1.8-11.9c0-1.6-0.1-3.1-0.3-4.6H290c5.5,0,10-4.5,10-10v-17.3h39.6c1.3,0,2.6-0.5,3.5-1.5l20.7-20.7
					c0.4,0.1,0.9,0.2,1.3,0.2h55.5c1.9,4.5,6.4,7.6,11.6,7.6c7,0,12.6-5.7,12.6-12.6S439.2,358.1,432.2,358.1L432.2,358.1z"/>
				<g>
					<g>
						<path class="st2" d="M290,181.5h-36.2v-76.2H290c5.5,0,10,4.5,10,10v56.2C300,177.1,295.5,181.5,290,181.5z"/>
						<path class="st2" d="M290,397.9h-36.2v-76.2H290c5.5,0,10,4.5,10,10v56.2C300,393.4,295.5,397.9,290,397.9z"/>
					</g>
					<path class="st3" d="M335.2,264.1L255,364.7V138.5l80.2,100.6C341.1,246.5,341.1,256.8,335.2,264.1z"/>
					<path class="st4" d="M311.9,264.1L255,335.5V167.8l56.9,71.3C317.7,246.5,317.7,256.8,311.9,264.1z"/>
					<path class="st5" d="M262.1,205.2c7.5-10.9,11.9-24.1,11.9-38.4c0-16.2-5.7-31.1-15.1-42.7c3.9-9.4,4.7-20.1,1.6-30.6
						C253.2,69,227.6,55,203.1,62.2c-15.4,4.5-26.6,16.3-31,30.5c-3.2-0.5-6.5-0.8-9.8-0.8c-34.6,0-62.7,28.1-62.7,62.7
						c0,4.8,0.6,9.6,1.6,14.1c-21.1,10.1-35.6,31.6-35.6,56.5c0,23.5,13,44,32.2,54.7c-2.2,6.6-3.4,13.7-3.4,21
						c0,31.2,21.6,57.4,50.7,64.3c2.1,11.3,7.5,22.1,16.3,30.9c7.7,7.7,17,12.8,26.8,15.4c4.1,17.9,20.2,31.3,39.3,31.3
						c22.3,0,40.4-18.1,40.4-40.4c0-9.4-3.2-18-8.6-24.9c9-9.3,14.6-22,14.6-36c0-14.4-5.9-27.5-15.5-36.9
						c9.8-15.3,15.5-33.4,15.5-52.9C273.9,235,269.6,219,262.1,205.2L262.1,205.2z"/>
					<path class="st6" d="M170.9,404c5.4,3.5,11.3,6.1,17.3,7.7c4.1,17.9,20.2,31.3,39.3,31.3c21.8,0,39.6-17.3,40.3-39L170.9,404
						L170.9,404z"/>
					<path class="st6" d="M147.4,374h115.2c7.1-8.8,11.4-20.1,11.4-32.3c0-0.6,0-1.1,0-1.7H107c9.1,12.5,22.5,21.7,38,25.4
						C145.6,368.3,146.4,371.2,147.4,374z"/>
					<path class="st2" d="M176.1,132.3v74c0,2.8-2.2,5-5,5H67.2c4.3-18.8,17-34.4,34-42.5c-1-4.5-1.6-9.2-1.6-14.1
						c0-9.8,2.3-19.1,6.3-27.4h65.2C173.9,127.3,176.1,129.5,176.1,132.3z"/>
					<circle class="st2" cx="270" cy="251.6" r="23.8"/>
					<g>
						<path class="st7" d="M421.8,338.7h-48.1l41.3-41.3c2-2,2-5.1,0-7.1c-2-2-5.1-2-7.1,0l-70.3,70.3H305v-28.9
							c0-5.4-2.9-10.1-7.1-12.8l21.8-27.3l20.7,20.7c1,1,2.3,1.5,3.5,1.5s2.6-0.5,3.5-1.5c2-2,2-5.1,0-7.1l-21.5-21.5l13.2-16.6
							c7.3-9.2,7.3-22,0-31.2l-7.1-8.9h65.7c2.8,0,5-2.2,5-5s-2.2-5-5-5h-73.7l-26.2-32.9c3.9-2.4,6.6-6.5,7.1-11.3h47.8
							c2.8,0,5-2.2,5-5s-2.2-5-5-5H305v-36.2h95.8c2.8,0,5-2.2,5-5s-2.2-5-5-5H305v-1.5c0-8.3-6.7-15-15-15h-23.1
							c-0.3-2.8-0.9-5.6-1.7-8.3c-1-3.5-2.4-6.8-4.1-9.9h102.6c2.8,0,5-2.2,5-5s-2.2-5-5-5H254.1c-3.8-4.2-8.3-7.7-13.4-10.5
							c-12-6.5-25.8-8-38.9-4.1c-15,4.4-27.1,15.5-32.9,29.9c-2.2-0.2-4.3-0.3-6.5-0.3c-37.3,0-67.7,30.4-67.7,67.7
							c0,3.8,0.3,7.6,1,11.4c-15.8,8.7-27.5,23.5-32.4,41c-0.7,2.7,0.8,5.4,3.5,6.2c2.7,0.7,5.4-0.8,6.2-3.5
							c4.5-16,15.6-29.2,30.6-36.4c2.1-1,3.2-3.3,2.7-5.6c-1-4.3-1.5-8.6-1.5-13c0-31.8,25.9-57.7,57.7-57.7c3,0,6.1,0.2,9.1,0.7
							c2.4,0.4,4.8-1.1,5.6-3.4c4.1-13.2,14.4-23.3,27.6-27.2c10.5-3.1,21.7-1.9,31.3,3.3c9.7,5.3,16.7,14,19.8,24.5
							c2.7,9.1,2.2,18.5-1.4,27.3c-0.7,1.7-0.4,3.6,0.7,5c9.2,11.3,14,25,14,39.6c0,12.8-3.8,25.1-11,35.6c-1.1,1.6-1.2,3.6-0.3,5.2
							c2.8,5.1,5,10.4,6.8,15.9c-13.2,2.6-23.2,14.3-23.2,28.2c0,14,10.1,25.7,23.4,28.2c-2.5,7.8-6,15.3-10.4,22.2
							c-1.3,2-1,4.6,0.7,6.3c9,8.9,14,20.7,14,33.3c0,12.2-4.7,23.7-13.2,32.5c-1.7,1.8-1.9,4.6-0.3,6.6c4.9,6.3,7.5,13.8,7.5,21.8
							c0,19.5-15.9,35.4-35.4,35.4c-16.6,0-30.8-11.3-34.5-27.4c-0.4-1.8-1.8-3.2-3.6-3.7c-9.3-2.4-17.8-7.3-24.6-14.1
							c-7.7-7.7-12.9-17.5-14.9-28.3c-0.4-1.9-1.8-3.5-3.7-3.9c-10.6-2.5-20.3-7.9-28.2-15.5c-2-1.9-5.2-1.9-7.1,0.1
							s-1.9,5.1,0.1,7.1c8.4,8.1,18.6,14,29.8,17.2c2.8,11.5,8.6,21.9,17,30.4c7.4,7.4,16.4,12.8,26.3,15.9
							c5.7,19.1,23.2,32.3,43.4,32.3c17.1,0,32-9.5,39.7-23.5h96.4c2.8,0,5-2.2,5-5s-2.2-5-5-5h-92.4c1-3.7,1.5-7.5,1.6-11.5H290
							c8.3,0,15-6.7,15-15v-17.3h34.6c1.3,0,2.6-0.5,3.5-1.5l20.7-20.7c0.4,0.1,0.9,0.2,1.3,0.2h56.6c2.8,0,5-2.2,5-5
							S424.5,338.7,421.8,338.7L421.8,338.7z M264.5,123.2c1.4-4.2,2.3-8.5,2.6-12.9H290c2.8,0,5,2.2,5,5v56.2
							c0,2.2-1.5,4.1-3.5,4.7l-12.9-16.1C277.4,146.8,272.5,134,264.5,123.2L264.5,123.2z M251.3,251.6c0-10.3,8.4-18.8,18.8-18.8
							s18.8,8.4,18.8,18.8c0,10.3-8.4,18.8-18.8,18.8S251.3,262,251.3,251.6L251.3,251.6z M264.7,304.1c4.5-7.6,7.9-15.7,10.3-24.2
							c13.5-2.4,23.7-14.2,23.7-28.3c0-14.2-10.3-26-23.9-28.3c-1.8-6.1-4.1-12.1-7-17.9c5.6-9,9.2-19.1,10.5-29.6l7.3,9.1
							l45.7,57.3c4.4,5.5,4.4,13.2,0,18.7l-53.9,67.6C275.3,319.5,271,311.2,264.7,304.1z M295,387.9c0,2.8-2.2,5-5,5h-18.1
							c-1.1-5.3-3.2-10.3-6.2-14.9c8.3-9.9,13-22.3,13.2-35.3l12.6-15.8c2,0.6,3.5,2.5,3.5,4.7L295,387.9L295,387.9z"/>
						<path class="st8" d="M100.2,275.6c-13.3-7.4-23.3-20.1-27.4-34.7c-0.8-2.7-3.5-4.2-6.2-3.5c-2.7,0.8-4.2,3.5-3.5,6.2
							c4.5,15.8,14.8,29.7,28.7,38.6c-1.7,6.1-2.5,12.4-2.5,18.7c0,6.7,0.9,13.4,2.8,19.8c0.6,2.2,2.6,3.6,4.8,3.6
							c0.5,0,0.9-0.1,1.4-0.2c2.7-0.8,4.2-3.5,3.4-6.2c-1.6-5.5-2.4-11.3-2.4-17.1c0-6.6,1.1-13.2,3.2-19.4
							C103.3,279.3,102.3,276.8,100.2,275.6L100.2,275.6z"/>
					</g>
					<circle class="st9" cx="270" cy="251.6" r="9.8"/>
					<circle class="st9" cx="150.1" cy="188.8" r="9.8"/>
					<g>
						<path class="st10" d="M173.3,247.6c-1.4,0-2.8-0.6-3.8-1.7c-4.9-5.7-12-9-19.5-9c-7.5,0-14.6,3.3-19.5,9
							c-1.8,2.1-5,2.3-7.1,0.5c-2.1-1.8-2.3-5-0.5-7.1c6.8-7.9,16.7-12.5,27.1-12.5c10.4,0,20.3,4.5,27.1,12.5
							c1.8,2.1,1.6,5.3-0.5,7.1C175.7,247.3,174.5,247.6,173.3,247.6L173.3,247.6z"/>
					</g>
					<g>
						<g>
							<path class="st10" d="M253.4,181.5c-1.4,0-2.8-0.6-3.8-1.7c-2.4-2.8-5.8-4.3-9.4-4.3c-3.6,0-7.1,1.6-9.4,4.3
								c-1.8,2.1-5,2.3-7.1,0.5c-2.1-1.8-2.3-5-0.5-7.1c4.3-5,10.5-7.8,17-7.8s12.7,2.9,17,7.8c1.8,2.1,1.6,5.3-0.5,7.1
								C255.7,181.1,254.5,181.5,253.4,181.5L253.4,181.5z"/>
						</g>
						<g>
							<path class="st10" d="M246.1,175.8c-0.3,0-0.6,0-0.8-0.1c-2.7-0.5-4.6-3-4.1-5.8c0.2-1.3,0.3-2.6,0.3-3.8
								c0-12.5-10.1-22.6-22.6-22.6s-22.6,10.1-22.6,22.6c0,1.2,0.1,2.5,0.3,3.8c0.5,2.7-1.4,5.3-4.1,5.8c-2.7,0.5-5.3-1.4-5.8-4.1
								c-0.3-1.8-0.5-3.7-0.5-5.5c0-18,14.6-32.6,32.6-32.6s32.6,14.6,32.6,32.6c0,1.8-0.2,3.6-0.5,5.5
								C250.6,174.1,248.5,175.8,246.1,175.8L246.1,175.8z"/>
						</g>
					</g>
					<g>
						<path class="st10" d="M195,325.6c-2.5,0-4.6-1.8-5-4.3c-1.6-12.2-12.1-21.4-24.5-21.4s-22.9,9.2-24.5,21.4
							c-0.4,2.7-2.9,4.7-5.6,4.3c-2.7-0.4-4.7-2.9-4.3-5.6c2.3-17.2,17-30.1,34.4-30.1s32.1,13,34.4,30.1c0.4,2.7-1.6,5.2-4.3,5.6
							C195.5,325.6,195.2,325.6,195,325.6z"/>
					</g>
					<g>
						<path class="st10" d="M180.4,345.6c-0.7,0-1.3-0.1-2-0.4c-2.5-1.1-3.7-4-2.6-6.6c5.5-12.7,18-20.9,31.8-20.9
							c13.8,0,26.3,8.2,31.8,20.9c1.1,2.5-0.1,5.5-2.6,6.6c-2.5,1.1-5.5-0.1-6.6-2.6c-3.9-9-12.8-14.9-22.6-14.9
							s-18.7,5.8-22.6,14.9C184.1,344.5,182.3,345.6,180.4,345.6z"/>
					</g>
					<g>
						<circle class="st10" cx="187.4" cy="256.1" r="6.1"/>
						<circle class="st10" cx="226.9" cy="217.4" r="6.1"/>
						<circle class="st10" cx="216.2" cy="111.5" r="6.1"/>
						<circle class="st10" cx="207.6" cy="380.5" r="6.1"/>
					</g>
				</g>
				<g>
					<circle class="st2" cx="408.2" cy="121.8" r="12.6"/>
					<circle class="st9" cx="408.2" cy="121.8" r="6.1"/>
				</g>
				<g>
					<circle class="st3" cx="363.2" cy="168" r="12.6"/>
					<circle class="st4" cx="363.2" cy="168" r="6.1"/>
				</g>
				<g>
					<circle class="st3" cx="408.2" cy="222.2" r="12.6"/>
					<circle class="st4" cx="408.2" cy="222.2" r="6.1"/>
				</g>
				<g>
					<circle class="st3" cx="432.2" cy="343.7" r="12.6"/>
					<circle class="st4" cx="432.2" cy="343.7" r="6.1"/>
				</g>
				<g>
					<g>
						<circle class="st2" cx="411.3" cy="293.9" r="12.6"/>
						<circle class="st9" cx="411.3" cy="293.9" r="6.1"/>
					</g>
				</g>
				<g>
					<g>
						<circle class="st3" cx="345.2" cy="310.6" r="12.6"/>
						<circle class="st4" cx="345.2" cy="310.6" r="6.1"/>
					</g>
				</g>
				<g>
					<circle class="st2" cx="374.2" cy="419.4" r="12.6"/>
					<circle class="st9" cx="374.2" cy="419.4" r="6.1"/>
				</g>
				<g>
					<circle class="st3" cx="374.2" cy="77.1" r="12.6"/>
					<circle class="st4" cx="374.2" cy="77.1" r="6.1"/>
				</g>
			</g>
			<g>
				<path class="st11" d="M76.9,102c-1.3,0-2.6-0.5-3.5-1.5L62.1,89.2c-0.9-0.9-1.5-2.2-1.5-3.5s0.5-2.6,1.5-3.5l11.3-11.3
					c2-2,5.1-2,7.1,0l11.3,11.3c2,2,2,5.1,0,7.1l-11.3,11.3C79.5,101.5,78.2,102,76.9,102z M72.7,85.7l4.2,4.2l4.2-4.2l-4.2-4.2
					L72.7,85.7z"/>
			</g>
			<g>
				<path class="st3" d="M123.9,69.6c-1.3,0-2.6-0.5-3.5-1.5l-11.3-11.3c-0.9-0.9-1.5-2.2-1.5-3.5s0.5-2.6,1.5-3.5l11.3-11.3
					c2-2,5.1-2,7.1,0l11.3,11.3c2,2,2,5.1,0,7.1l-11.3,11.3C126.5,69.2,125.2,69.6,123.9,69.6z M119.7,53.4l4.2,4.2l4.2-4.2
					l-4.2-4.2L119.7,53.4z"/>
			</g>
			<g>
				<path class="st2" d="M438.4,455.9c-7.2,0-13-5.8-13-13s5.8-13,13-13s13,5.8,13,13S445.5,455.9,438.4,455.9z M438.4,439.9
					c-1.7,0-3,1.4-3,3s1.4,3,3,3s3-1.4,3-3S440,439.9,438.4,439.9z"/>
			</g>
			<g>
				<path class="st2" d="M102,425.1c-7.2,0-13-5.8-13-13s5.8-13,13-13s13,5.8,13,13S109.1,425.1,102,425.1z M102,409.1
					c-1.7,0-3,1.4-3,3s1.4,3,3,3s3-1.4,3-3S103.6,409.1,102,409.1z"/>
			</g>
			<g>
				<path class="st11" d="M427,69.3c-7.2,0-13-5.8-13-13s5.8-13,13-13s13,5.8,13,13S434.2,69.3,427,69.3z M427,53.2
					c-1.7,0-3,1.4-3,3s1.4,3,3,3s3-1.4,3-3S428.6,53.2,427,53.2z"/>
			</g>
		</g>
	</g>
</g>
</svg>
