<?xml version="1.0" encoding="utf-8"?>
<!-- Generator: Adobe Illustrator 25.2.1, SVG Export Plug-In . SVG Version: 6.00 Build 0)  -->
<svg version="1.1" id="Camada_1" xmlns:svgjs="http://svgjs.com/svgjs"
	 xmlns="http://www.w3.org/2000/svg" xmlns:xlink="http://www.w3.org/1999/xlink" x="0px" y="0px" viewBox="0 0 512 512"
	 style="enable-background:new 0 0 512 512;" xml:space="preserve">
<style type="text/css">
	.st0{fill:url(#SVGID_1_);}
	.st1{opacity:0.1;}
	.st2{fill:#0000CB;}
	.st3{fill:#FFE7DB;}
	.st4{fill:#FF6C6C;}
	.st5{fill:#FF9C33;}
	.st6{fill:#424EB1;}
	.st7{fill:#D97727;}
	.st8{fill:#BD6117;}
	.st9{fill:#FFFFFF;}
	.st10{fill:#FFAA66;}
	.st11{fill:#FFC498;}
	.st12{fill:#A72121;}
	.st13{fill:#C22C2C;}
	.st14{fill:#222E8F;}
	.st15{fill:#070E47;}
</style>
<g>
	<g>
		<g>
			
				<linearGradient id="SVGID_1_" gradientUnits="userSpaceOnUse" x1="72.3102" y1="75.1005" x2="368.1692" y2="370.9585" gradientTransform="matrix(1 0 0 -1 0 514)">
				<stop  offset="0" style="stop-color:#FACECE;stop-opacity:0"/>
				<stop  offset="0.9981" style="stop-color:#FF8C8C"/>
			</linearGradient>
			<path class="st0" d="M501.6,321.9c-54.2-75.1-207.3-22.3-199.1-139.9c7-100.8-44.9-210.6-162.7-168.5
				C48.9,45.9-22.1,165.7,6.4,264.1c16.8,58.1,90.2,89.4,96.9,148.9c4.3,38.5,3.5,83.3,49.4,93c56.7,12,97.4-42.3,157.3-24.3
				c69.3,20.8,129.6-25,177.4-75.6C509.9,382.2,521.9,350.1,501.6,321.9L501.6,321.9z"/>
		</g>
		<g>
			<g class="st1">
				<path class="st2" d="M404.2,318c-1.7-8.3-12.2-10.9-17.6-4.5L343.8,364c-7.5,8.8,3.3,21.3,13.1,15.1l9.2-5.8
					c-14.5,28.1-42.6,45.1-72.4,46.8l-26-20.6v-10.5c11.5-4.4,20-15,21.2-27.9l0.1-0.6c2.1,1.5,4.6,2.3,7.4,2.3c7.2,0,13-5.8,13-13
					s-5.8-13-13-13c-1.9,0-3.7,0.4-5.3,1.1l0.1-1.1c0.8-8.8-1.7-17.1-6.4-23.7h13.4c5.5,0,10-4.5,10-10v-121c0-5.5-4.5-10-10-10
					h-84.3c-5.5,0-10,4.5-10,10v121c0,5.5,4.5,10,10,10h13.4c-4.7,6.6-7.2,14.9-6.4,23.7l0.1,1.1c-1.6-0.7-3.4-1.1-5.3-1.1
					c-7.2,0-13,5.8-13,13s5.8,13,13,13c2.7,0,5.3-0.9,7.4-2.3l0.1,0.6c1.2,12.9,9.7,23.5,21.2,27.9v10.5l-44.2,34.9
					c-1.6,1.2-2.7,3-3.1,4.9l-9.2,44.2c-0.6,2.6,1.5,5.1,4.2,5.1h128.1c2.7,0,4.7-2.5,4.2-5.1l-8.1-38.6c32.6-8,61.6-30.1,76.9-62.8
					c0.3-0.5,0.5-1.1,0.7-1.6l5.2,9.2c5.7,10.1,21.1,4.3,18.7-7L404.2,318z"/>
				<path class="st2" d="M466.9,256.4l-9.2-44.2c-0.4-2-1.5-3.7-3.1-4.9l-44.2-34.9v-10.5c11.5-4.4,20-15,21.2-27.9l0.1-0.6
					c2.1,1.5,4.6,2.3,7.4,2.3c7.2,0,13-5.8,13-13s-5.8-13-13-13c-1.9,0-3.7,0.4-5.3,1.1l0.1-1.1c1.9-20.7-14.4-38.5-35.2-38.5
					c-20.8,0-37.1,17.8-35.2,38.5l0.1,1.1c-1.6-0.7-3.4-1.1-5.3-1.1c-4.9,0-9.1,2.7-11.3,6.7c-19.1-11.9-41.9-18.3-66-17.1
					c-0.6,0-1.2,0.1-1.8,0.1l5.7-8.9c6.2-9.7-6.1-20.6-15-13.3l-50.9,42.2c-6.5,5.4-3.9,15.9,4.3,17.7l64.6,14.2
					c11.3,2.5,17.3-12.9,7.2-18.7l-9.4-5.4c38.3-0.4,71.5,24.4,83.1,59.4l-26.1,20.6c-1.6,1.2-2.7,3-3.1,4.9l-9.2,44.2
					c-0.6,2.6,1.5,5.1,4.2,5.1h128.1C465.5,261.5,467.5,259,466.9,256.4L466.9,256.4z"/>
				<path class="st2" d="M172.3,212.1c-0.4-2-1.5-3.7-3.1-4.9L125,172.3v-10.5c11.5-4.4,20-15,21.2-27.9l0.1-0.6
					c2.1,1.5,4.6,2.3,7.4,2.3c7.2,0,13-5.8,13-13s-5.8-13-13-13c-1.9,0-3.7,0.4-5.3,1.1l0.1-1.1c1.9-20.7-14.4-38.5-35.2-38.5
					S76.3,89,78.2,109.7l0.1,1.1c-1.6-0.7-3.4-1.1-5.3-1.1c-7.2,0-13,5.8-13,13s5.8,13,13,13c2.7,0,5.3-0.9,7.4-2.3l0.1,0.6
					c1.2,12.9,9.7,23.5,21.2,27.9v10.5l-44.2,34.9c-1.6,1.2-2.7,3-3.1,4.9l-9.2,44.2c-0.6,2.6,1.5,5.1,4.2,5.1h49.9
					c-7.2,29.7-2.7,62.3,15.3,89.9c0.3,0.5,0.7,1,1,1.5l-10.5-0.4c-11.6-0.5-14.8,15.7-3.9,19.6l62.1,22.6
					c7.9,2.9,15.7-4.6,13.1-12.6l-20.3-62.9c-3.6-11-19.8-8.4-19.8,3.2l0,10.8c-13.3-22.3-15.5-48.5-7.8-71.7h49
					c2.7,0,4.7-2.5,4.2-5.1L172.3,212.1z"/>
			</g>
			<g>
				<g>
					<path class="st3" d="M298.1,289.3h-84.3c-5.5,0-10-4.5-10-10v-121c0-5.5,4.5-10,10-10h84.3c5.5,0,10,4.5,10,10v121
						C308.1,284.8,303.7,289.3,298.1,289.3z"/>
					<g>
						<g>
							<path class="st4" d="M239.3,181.7c-2.8,0-5-2.2-5-5v-0.1c0-2.8,2.2-5,5-5s5,2.2,5,5v0.1C244.3,179.5,242.1,181.7,239.3,181.7
								z"/>
						</g>
						<g>
							<path class="st4" d="M256,181.7c-2.8,0-5-2.2-5-5v-0.1c0-2.8,2.2-5,5-5c2.8,0,5,2.2,5,5v0.1C261,179.5,258.8,181.7,256,181.7
								z"/>
						</g>
						<g>
							<path class="st4" d="M272.7,181.7c-2.8,0-5-2.2-5-5v-0.1c0-2.8,2.2-5,5-5s5,2.2,5,5v0.1C277.7,179.5,275.5,181.7,272.7,181.7
								z"/>
						</g>
					</g>
					<g>
						<g>
							<path class="st5" d="M282.1,207.6h-52.2c-2.8,0-5-2.2-5-5s2.2-5,5-5h52.2c2.8,0,5,2.2,5,5S284.9,207.6,282.1,207.6z"/>
						</g>
						<g>
							<path class="st5" d="M282.1,227.9h-52.2c-2.8,0-5-2.2-5-5s2.2-5,5-5h52.2c2.8,0,5,2.2,5,5S284.9,227.9,282.1,227.9z"/>
						</g>
						<g>
							<path class="st5" d="M282.1,248.2h-52.2c-2.8,0-5-2.2-5-5s2.2-5,5-5h52.2c2.8,0,5,2.2,5,5S284.9,248.2,282.1,248.2z"/>
						</g>
						<g>
							<path class="st5" d="M282.1,268.5h-52.2c-2.8,0-5-2.2-5-5s2.2-5,5-5h52.2c2.8,0,5,2.2,5,5S284.9,268.5,282.1,268.5z"/>
						</g>
					</g>
				</g>
				<path class="st6" d="M136.2,298.4l0,10.8c-13.9-23.3-15.6-50.7-6.8-74.6c-8.3-4.6-16.6-9.2-24.8-13.8
					c-13.9,33.8-11.6,73.7,9.8,106.6c0.3,0.5,0.7,1,1,1.5l-10.5-0.4c-11.6-0.5-14.8,15.7-3.9,19.6l62.1,22.6
					c7.9,2.9,15.7-4.6,13.1-12.6l-20.3-62.9C152.4,284.2,136.1,286.8,136.2,298.4L136.2,298.4z"/>
				<path class="st6" d="M371.2,171.3l29.8,9.2C395.9,119.1,342.9,72.2,281,75.2c-0.6,0-1.2,0.1-1.8,0.1l5.7-8.9
					c6.2-9.7-6.1-20.6-15-13.3l-50.9,42.2c-6.5,5.4-3.9,15.9,4.3,17.7l64.6,14.2c11.3,2.5,17.3-12.9,7.2-18.7l-9.4-5.4
					C327.1,102.8,362.5,131.8,371.2,171.3L371.2,171.3z"/>
				<g>
					<path class="st6" d="M417.7,358.8L404.2,294c-1.7-8.3-12.2-10.9-17.6-4.5L343.8,340c-7.5,8.8,3.3,21.3,13.1,15.1l9.2-5.8
						c-15.9,30.8-48,48.2-80.9,46.8v28.2c44.5,1.4,87.8-23.2,107.9-66.1c0.3-0.5,0.5-1.1,0.7-1.6l5.2,9.2
						C404.7,375.9,420.1,370.1,417.7,358.8z"/>
					<g>
						<g>
							<path class="st7" d="M320.1,464.8H191.9c-2.7,0-4.7-2.5-4.2-5.1l9.2-44.2c0.4-2,1.5-3.7,3.1-4.9l31.9-25.2l48.1,0l31.9,25.2
								c1.6,1.2,2.6,3,3.1,4.9l9.2,44.2C324.8,462.3,322.8,464.8,320.1,464.8L320.1,464.8z"/>
							<g>
								<g>
									<path class="st8" d="M223.6,438.8l-2.8,26h-8.6l2.9-26.9c0.2-2.3,2.4-4,4.7-3.8C222.2,434.4,223.9,436.5,223.6,438.8z"/>
								</g>
								<g>
									<path class="st8" d="M299.7,464.8h-8.6l-2.8-26c-0.2-2.3,1.4-4.4,3.8-4.7c2.3-0.2,4.4,1.4,4.7,3.8L299.7,464.8z"/>
								</g>
							</g>
							<path class="st9" d="M280.1,385.3l-24,54.6l-24.1-54.6l12.3-9.7h23.4L280.1,385.3z"/>
							<path class="st10" d="M244.3,376.7v-20.9h23.4v20.9c0,6.5-5.2,11.7-11.7,11.7C249.5,388.4,244.3,383.2,244.3,376.7
								L244.3,376.7z"/>
							<g>
								<g>
									<circle class="st10" cx="215.6" cy="325.9" r="13"/>
									<circle class="st10" cx="296.4" cy="325.9" r="13"/>
								</g>
								<path class="st11" d="M256,367.2c-17.1,0-31.4-13-32.9-30l-2.2-24.2c-1.9-20.7,14.4-38.5,35.2-38.5s37.1,17.8,35.2,38.5
									l-2.2,24.2C287.4,354.2,273.1,367.2,256,367.2z"/>
							</g>
						</g>
						<g>
							<g>
								<path class="st12" d="M462.8,237.5H334.6c-2.7,0-4.7-2.5-4.2-5.1l9.2-44.2c0.4-2,1.5-3.7,3.1-4.9l31.9-25.2l48.1,0
									l31.9,25.2c1.6,1.2,2.6,3,3.1,4.9l9.2,44.2C467.5,235,465.5,237.5,462.8,237.5L462.8,237.5z"/>
								<g>
									<g>
										<path class="st13" d="M366.3,211.5l-2.8,26H355l2.9-26.9c0.2-2.3,2.4-4,4.7-3.8C364.9,207.1,366.6,209.2,366.3,211.5
											L366.3,211.5z"/>
									</g>
									<g>
										<path class="st13" d="M442.4,237.5h-8.6l-2.8-26c-0.2-2.3,1.4-4.4,3.8-4.7c2.3-0.2,4.4,1.4,4.7,3.8L442.4,237.5z"/>
									</g>
								</g>
								<path class="st9" d="M422.7,158l-24,54.6L374.6,158l12.3-9.7h23.4L422.7,158z"/>
								<path class="st10" d="M387,149.4v-20.9h23.4v20.9c0,6.5-5.2,11.7-11.7,11.7C392.2,161.1,387,155.9,387,149.4z"/>
								<g>
									<g>
										<circle class="st10" cx="358.3" cy="98.6" r="13"/>
										<circle class="st10" cx="439.1" cy="98.6" r="13"/>
									</g>
									<path class="st11" d="M398.7,139.9c-17.1,0-31.4-13-32.9-30l-2.2-24.2c-1.9-20.7,14.4-38.5,35.2-38.5
										c20.8,0,37.1,17.8,35.2,38.5l-2.2,24.2C430.1,126.9,415.8,139.9,398.7,139.9z"/>
								</g>
							</g>
							<g>
								<path class="st14" d="M177.4,237.5H49.2c-2.7,0-4.7-2.5-4.2-5.1l9.2-44.2c0.4-2,1.5-3.7,3.1-4.9L89.3,158l48.1,0l31.9,25.2
									c1.6,1.2,2.6,3,3.1,4.9l9.2,44.2C182.1,235,180.1,237.5,177.4,237.5L177.4,237.5z"/>
								<g>
									<g>
										<path class="st15" d="M81,211.5l-2.8,26h-8.6l2.9-26.9c0.2-2.3,2.4-4,4.7-3.8C79.5,207.1,81.2,209.2,81,211.5z"/>
									</g>
									<g>
										<path class="st15" d="M157,237.5h-8.6l-2.8-26c-0.2-2.3,1.4-4.4,3.8-4.7c2.3-0.2,4.4,1.4,4.7,3.8L157,237.5z"/>
									</g>
								</g>
								<path class="st9" d="M137.4,158l-24,54.6L89.3,158l12.3-9.7H125L137.4,158z"/>
								<path class="st10" d="M101.6,149.4v-20.9H125v20.9c0,6.5-5.2,11.7-11.7,11.7C106.8,161.1,101.6,155.9,101.6,149.4z"/>
								<g>
									<g>
										<g>
											<circle class="st10" cx="72.9" cy="98.6" r="13"/>
											<circle class="st10" cx="153.7" cy="98.6" r="13"/>
										</g>
										<g>
											<path class="st15" d="M72.9,116.6c-9.9,0-18-8.1-18-18c0-9.9,8.1-18,18-18c2.6,0,5,0.5,7.4,1.6c2.5,1.1-1.6,10.2-4.1,9.1
												c-1-0.5-2.1-0.7-3.3-0.7c-4.4,0-8,3.6-8,8c0,4.4,3.6,8,8,8c1.6,0,3.2-0.5,4.5-1.4c2.3-1.6,8,6.6,5.7,8.2
												C80.2,115.5,76.6,116.6,72.9,116.6z"/>
										</g>
									</g>
									<path class="st11" d="M113.3,139.9c-17.1,0-31.4-13-32.9-30l-2.2-24.2C76.3,65,92.5,47.2,113.3,47.2s37.1,17.8,35.2,38.5
										l-2.2,24.2C144.7,126.9,130.4,139.9,113.3,139.9z"/>
									<g>
										<path class="st15" d="M160.7,293.7c-2.3-7.3-9.2-11.5-16.8-10.3c-4.7,0.8-8.5,3.5-10.7,7.3c-5.1-15.4-5.6-32.2-1.1-48.1
											h45.3c2.8,0,5.4-1.2,7.2-3.4c1.8-2.2,2.4-5,1.9-7.7l-9.2-44.2c-0.6-3.1-2.4-5.9-4.9-7.8L130,145.8v-4.7
											c9.9-4.8,17.4-13.8,20.2-24.8c1.1,0.2,2.3,0.3,3.5,0.3c9.9,0,18-8.1,18-18c0-9.9-8.1-18-18-18c0,0-0.1,0-0.1,0
											c-0.4-9.3-4.1-18.4-10.5-25.3c-7.6-8.4-18.5-13.1-29.8-13.1S91.2,47,83.5,55.3c-7.6,8.4-11.4,19.6-10.4,30.9l2.2,24.2
											c1.3,13.7,9.6,25.1,21.2,30.8v4.7l-42.3,33.4c-2.5,2-4.2,4.7-4.9,7.8l-9.2,44.2c-0.6,2.7,0.1,5.6,1.9,7.7
											c1.8,2.2,4.4,3.4,7.2,3.4h72.5c-5.9,23.5-2.3,48.4,10.2,69.3c1.2,1.9,3.5,2.9,5.6,2.3c2.2-0.6,3.7-2.6,3.7-4.8l0-10.8
											c0-4.2,3.6-5,4.3-5.1c0.7-0.1,4.4-0.5,5.7,3.5l20.3,62.9c0.6,1.9,0.1,3.9-1.3,5.3c-1.4,1.4-3.4,1.8-5.3,1.1l-62.1-22.6
											c-3.9-1.4-3.4-5.1-3.3-5.8c0.1-0.7,1-4.3,5.2-4.1l10.5,0.4c1.9,0.1,3.7-0.9,4.6-2.6c0.9-1.6,0.8-3.7-0.2-5.2l-0.4-0.6
											c-0.2-0.3-0.4-0.5-0.6-0.8c-11.9-18.2-18-39.3-17.7-61c0-2.8-2.2-5-4.9-5.1c0,0,0,0-0.1,0c-2.7,0-5,2.2-5,4.9
											c-0.2,21.1,5.1,41.7,15.4,60l-1.1,0c-7.6-0.3-14,4.7-15.5,12.2c-1.5,7.5,2.5,14.5,9.7,17.2l62.1,22.6
											c1.7,0.6,3.5,0.9,5.2,0.9c3.8,0,7.6-1.5,10.5-4.2c4.2-4,5.7-10,3.9-15.5L160.7,293.7z M161.7,98.6c0,4.4-3.6,8-8,8
											c-0.7,0-1.4-0.1-2.1-0.3l1.4-15.6c0.2,0,0.4,0,0.7,0C158.1,90.7,161.7,94.2,161.7,98.6z M85.4,109.4l-2.2-24.2
											c-0.8-8.6,2-16.8,7.8-23.2c5.8-6.4,13.8-9.9,22.4-9.9s16.6,3.5,22.4,9.9c5.8,6.4,8.6,14.6,7.8,23.2l-2.2,24.2
											c-1.3,14.5-13.4,25.5-28,25.5S86.7,124,85.4,109.4z M59.2,189.2c0.2-0.8,0.6-1.5,1.3-2l44.2-34.9c1.2-0.9,1.9-2.4,1.9-3.9
											v-3.9c2.2,0.4,4.4,0.6,6.7,0.6s4.5-0.2,6.7-0.6v3.9c0,1.5,0.7,3,1.9,3.9l44.2,34.9c0.6,0.5,1.1,1.2,1.3,2l9.1,43.3H50.2
											L59.2,189.2z"/>
										<path class="st15" d="M409.1,293c-1.2-5.7-5.4-10.1-11.1-11.6c-5.7-1.4-11.5,0.4-15.3,4.9L340,336.8
											c-4.9,5.8-4.9,13.9,0.1,19.7c3.1,3.6,7.5,5.4,11.8,5.3c-14,16.8-34.4,27.5-56.6,29.2l-22.6-17.8v-4.7
											c9.9-4.8,17.4-13.8,20.2-24.8c1.1,0.2,2.3,0.3,3.5,0.3c9.9,0,18-8.1,18-18c0-9.9-8.1-18-18-18c0,0-0.1,0-0.1,0
											c-0.2-4.7-1.3-9.3-3.1-13.6h4.9c8.3,0,15-6.7,15-15v-121c0-8.3-6.7-15-15-15h-19.5c-2.8,0-5,2.2-5,5s2.2,5,5,5h19.5
											c2.8,0,5,2.2,5,5v121c0,2.8-2.2,5-5,5h-10.9c-0.5-0.6-1-1.1-1.5-1.7c-7.6-8.4-18.5-13.1-29.8-13.1s-22.2,4.8-29.8,13.1
											c-0.5,0.6-1,1.1-1.5,1.7h-10.9c-2.8,0-5-2.2-5-5v-121c0-2.8,2.2-5,5-5h35.2c2.8,0,5-2.2,5-5s-2.2-5-5-5h-35.2
											c-8.3,0-15,6.7-15,15v121c0,8.3,6.7,15,15,15h4.9c-1.8,4.3-2.8,8.9-3.1,13.6c0,0-0.1,0-0.1,0c-9.9,0-18,8.1-18,18
											c0,9.9,8.1,18,18,18c1.2,0,2.3-0.1,3.5-0.4c2.8,11,10.3,20,20.2,24.8v4.7L197,406.6c-2.5,2-4.2,4.8-4.9,7.9l-9.2,44.2
											c-0.6,2.7,0.1,5.6,1.9,7.7s4.4,3.4,7.2,3.4h128.1c2.8,0,5.4-1.2,7.2-3.4c1.8-2.2,2.5-5,1.9-7.7l-7.1-34
											c30.9-8.9,56.7-29.4,72.1-57.4l0.5,1c3.7,6.6,11.4,9.4,18.5,6.7c7.1-2.7,11-9.8,9.5-17.2L409.1,293z M304.4,326
											c0,4.4-3.6,8-8,8c-0.7,0-1.4-0.1-2.1-0.3l1.4-15.6c0.2,0,0.4,0,0.7,0C300.8,318,304.4,321.5,304.4,326z M207.6,326
											c0-4.4,3.6-8,8-8c0.2,0,0.4,0,0.7,0l1.4,15.6c-0.7,0.2-1.4,0.3-2.1,0.3C211.2,333.9,207.6,330.4,207.6,326z M228,336.7
											l-2.2-24.2c-0.8-8.6,2-16.8,7.8-23.2c5.8-6.4,13.8-9.9,22.4-9.9s16.6,3.5,22.4,9.9c5.8,6.4,8.6,14.6,7.8,23.2l-2.2,24.2
											c-1.3,14.5-13.4,25.5-28,25.5S229.4,351.3,228,336.7z M192.8,459.8l9.1-43.4c0.2-0.8,0.6-1.5,1.3-2l44.2-34.9
											c1.2-0.9,1.9-2.4,1.9-3.9v-3.9c2.2,0.4,4.4,0.6,6.7,0.6c2.3,0,4.5-0.2,6.7-0.6v3.9c0,1.5,0.7,3,1.9,3.9l44.2,34.9
											c0.6,0.5,1.1,1.2,1.3,2l9.1,43.3H192.8z M409.6,365.6c-0.7,0.3-4.2,1.4-6.3-2.3l-5.2-9.2c-0.9-1.6-2.7-2.6-4.6-2.5
											c-1.9,0.1-3.6,1.2-4.3,2.9c-0.1,0.2-0.2,0.5-0.3,0.7c-0.1,0.3-0.2,0.6-0.4,0.9c-13.4,28.7-38.3,49.8-68.6,58.7l-0.1-0.5
											c-0.6-3.1-2.4-5.9-4.9-7.9l-8.8-7c27.4-5.3,51.4-22.9,64.3-47.9c1-2,0.6-4.4-1.1-6c-1.7-1.5-4.1-1.8-6-0.6l-9.2,5.8
											c-3.5,2.2-6.1-0.4-6.6-1c-0.5-0.6-2.7-3.5,0-6.7l42.8-50.5c1.3-1.5,3.2-2.1,5.2-1.7c1.9,0.5,3.3,2,3.8,3.9l13.5,64.7
											C413.7,363.9,410.3,365.4,409.6,365.6L409.6,365.6z"/>
										<path class="st15" d="M471.8,231.4l-9.2-44.2c-0.6-3.1-2.4-5.9-4.9-7.8l-42.3-33.4v-4.7c9.9-4.8,17.4-13.8,20.2-24.8
											c1.1,0.2,2.3,0.3,3.5,0.3c9.9,0,18-8.1,18-18c0-9.9-8.1-18-18-18c0,0-0.1,0-0.1,0c-0.4-9.3-4.1-18.4-10.5-25.3
											c-7.6-8.4-18.5-13.1-29.8-13.1s-22.2,4.8-29.8,13.1c-6.4,7-10,16-10.5,25.3c0,0-0.1,0-0.1,0c-4.9,0-9.3,2-12.6,5.1
											c-17.6-10-37.2-15.4-57.3-15.7l0.6-0.9c4.1-6.4,3-14.4-2.7-19.5c-5.7-5.1-13.8-5.2-19.7-0.3l-50.9,42.2
											c-4.5,3.7-6.4,9.5-5,15.2c1.4,5.7,5.8,10,11.5,11.2l64.6,14.2c7.5,1.6,14.6-2.2,17.3-9.3c1.7-4.5,1.3-9.2-0.9-13
											c27,5.6,49.6,24.5,59.7,51l-23.2,18.4c-2.5,2-4.2,4.7-4.9,7.8l-9.3,44.2c-0.6,2.7,0.1,5.6,1.9,7.7
											c1.8,2.2,4.4,3.4,7.2,3.4h128.1c2.8,0,5.4-1.2,7.2-3.4C471.7,236.9,472.4,234.1,471.8,231.4L471.8,231.4z M447,98.6
											c0,4.4-3.6,8-8,8c-0.7,0-1.4-0.1-2.1-0.3l1.4-15.6c0.2,0,0.4,0,0.7,0C443.5,90.7,447,94.2,447,98.6z M376.3,62.1
											c5.8-6.4,13.8-9.9,22.4-9.9s16.6,3.5,22.4,9.9c5.8,6.4,8.6,14.6,7.8,23.2l-2.2,24.2c-1.3,14.5-13.4,25.5-28,25.5
											s-26.6-11-28-25.5l-2.2-24.2C367.7,76.7,370.5,68.4,376.3,62.1z M358.3,90.7c0.2,0,0.4,0,0.7,0l1.4,15.6
											c-0.7,0.2-1.4,0.3-2.1,0.3c-4.4,0-8-3.6-8-8C350.3,94.2,353.9,90.7,358.3,90.7z M340.2,115.6
											c-16-11.6-34.8-17.6-54.5-17.4c-2.3,0-4.2,1.5-4.8,3.7s0.4,4.5,2.3,5.6l9.4,5.4c3.6,2.1,2.5,5.6,2.2,6.3
											c-0.3,0.7-1.8,4-5.9,3.1l-64.6-14.2c-2-0.4-3.4-1.8-3.9-3.8c-0.5-1.9,0.2-3.9,1.7-5.2L273,57c3.2-2.7,6.1-0.4,6.7,0.1
											c0.5,0.5,3.2,3.1,0.9,6.6l-5.7,8.9c-1,1.6-1.1,3.6-0.1,5.2s2.8,2.6,4.6,2.4l0.7,0c0.3,0,0.7-0.1,1.1-0.1
											c21-1,41.5,3.9,59.6,14.3c-0.3,1.3-0.5,2.7-0.5,4.2c0,9.9,8.1,18,18,18c1.2,0,2.3-0.1,3.5-0.3c2.8,11,10.3,20,20.2,24.8
											v4.7l-10.9,8.6C364.6,138.9,354,125.6,340.2,115.6L340.2,115.6z M335.5,232.5l9.1-43.3c0.2-0.8,0.6-1.5,1.3-2l44.2-34.9
											c1.2-0.9,1.9-2.4,1.9-3.9v-3.9c2.2,0.4,4.4,0.6,6.7,0.6c2.3,0,4.5-0.2,6.7-0.6v3.9c0,1.5,0.7,3,1.9,3.9l44.2,34.9
											c0.7,0.5,1.1,1.2,1.3,2l9.1,43.3L335.5,232.5z"/>
									</g>
								</g>
							</g>
						</g>
					</g>
				</g>
			</g>
			<g>
				<path class="st14" d="M89.7,429.4c-0.5,0-0.9-0.1-1.4-0.2c-13.1-3.7-14.1-22.5-14.1-23.3c-0.1-2.3,1.3-4.3,3.5-5l10.5-3.3
					c1-0.3,2-0.3,3,0l10.5,3.3c2.2,0.7,3.6,2.7,3.5,5c0,0.8-1,19.6-14.1,23.3C90.6,429.4,90.1,429.4,89.7,429.4z M84.7,409.2
					c0.7,3.5,2.2,8,5,9.8c2.8-1.8,4.3-6.3,5-9.8l-5-1.5L84.7,409.2z"/>
			</g>
			<g>
				<path class="st14" d="M442.4,454.3c-0.5,0-0.9-0.1-1.4-0.2c-13.1-3.7-14.1-22.5-14.1-23.3c-0.1-2.3,1.3-4.3,3.5-5l10.5-3.3
					c1-0.3,2-0.3,3,0l10.5,3.3c2.2,0.7,3.6,2.7,3.5,5c0,0.8-1,19.6-14.1,23.3C443.3,454.2,442.9,454.3,442.4,454.3z M437.4,434.1
					c0.7,3.5,2.2,8,5,9.8c2.8-1.8,4.3-6.3,5-9.8l-5-1.5L437.4,434.1z"/>
			</g>
			<g>
				<path class="st7" d="M58.4,320.8c-0.5,0-0.9-0.1-1.4-0.2c-13.1-3.7-14.1-22.5-14.1-23.3c-0.1-2.3,1.3-4.3,3.5-5l10.5-3.3
					c1-0.3,2-0.3,3,0l10.5,3.3c2.2,0.7,3.6,2.7,3.5,5c0,0.8-1,19.6-14.1,23.3C59.3,320.7,58.8,320.8,58.4,320.8z M53.3,300.6
					c0.7,3.5,2.2,8,5,9.8c2.8-1.8,4.3-6.3,5-9.8l-5-1.5L53.3,300.6z"/>
			</g>
			<g>
				<path class="st12" d="M377,449.9c-1.3,0-2.6-0.5-3.5-1.5c-2-2-2-5.1,0-7.1l10-10c2-2,5.1-2,7.1,0c2,2,2,5.1,0,7.1l-10,10
					C379.5,449.5,378.3,449.9,377,449.9z"/>
			</g>
			<g>
				<path class="st14" d="M316.1,48.3c-1.3,0-2.6-0.5-3.5-1.5c-2-2-2-5.1,0-7.1l10-10c2-2,5.1-2,7.1,0c2,2,2,5.1,0,7.1l-10,10
					C318.6,47.8,317.4,48.3,316.1,48.3z"/>
			</g>
		</g>
	</g>
</g>
</svg>
