<?xml version="1.0" encoding="utf-8"?>
<!-- Generator: Adobe Illustrator 25.2.1, SVG Export Plug-In . SVG Version: 6.00 Build 0)  -->
<svg version="1.1" id="Camada_1" xmlns:svgjs="http://svgjs.com/svgjs"
	 xmlns="http://www.w3.org/2000/svg" xmlns:xlink="http://www.w3.org/1999/xlink" x="0px" y="0px" viewBox="0 0 512 512"
	 style="enable-background:new 0 0 512 512;" xml:space="preserve">
<style type="text/css">
	.st0{fill:url(#SVGID_1_);}
	.st1{opacity:0.1;fill:#2626BC;enable-background:new    ;}
	.st2{fill:#C3C8EE;}
	.st3{fill:#8992CF;}
	.st4{fill:#6583FE;}
	.st5{fill:#FFFFFF;}
	.st6{fill:#02FFB3;}
	.st7{fill:#01ECA5;}
	.st8{fill:#B0B6EE;}
	.st9{fill:#99A2E7;}
	.st10{fill:#FF7EB8;}
	.st11{fill:#070E47;}
</style>
<g>
	<g>
		<g>
			<g>
				
					<linearGradient id="SVGID_1_" gradientUnits="userSpaceOnUse" x1="5.4003" y1="257.9995" x2="506.6019" y2="257.9995" gradientTransform="matrix(1 0 0 -1 0 514)">
					<stop  offset="0" style="stop-color:#525252"/>
					<stop  offset="1" style="stop-color:#D1D1D1"/>
				</linearGradient>
				<path class="st0" d="M461.2,27.4c-63.8-38-146.3-35.9-208.9,3c-35.2,21.9-62.4,53.4-93.2,80.6c-27,23.8-58.4,40.8-86.4,63.2
					c-101.2,81.4-91.6,301,51,330.1c61.8,12.6,146.2,16.7,182.5-43.6c34.6-57.5,46.2-116.4,113.9-146.9c23.6-10.6,63-10.1,78.9-33.5
					c20.2-29.4-4.9-60-18.2-85.7c-17.2-33.1-20.8-65.7-8.7-101.2C482.4,63.2,489.7,49.6,461.2,27.4L461.2,27.4z"/>
			</g>
			<g>
				<path class="st1" d="M423.8,110.1H318.9c-15.1,0-27.7,10.8-30.5,25.1H67.1c-5.5,0-10,4.5-10,10v219.1c0,5.5,4.5,10,10,10h121.7
					v79.6H150c-2.8,0-5,2.2-5,5s2.2,5,5,5h175.7c2.8,0,5-2.2,5-5s-2.2-5-5-5h-38.8v-79.6h124.7c5.5,0,10-4.5,10-10V172.3h2.3
					c17.2,0,31.1-13.9,31.1-31.1C454.9,124,441,110.1,423.8,110.1z M215.1,374.3h45.3v25.1c0,12.5-10.1,22.7-22.7,22.7
					s-22.7-10.1-22.7-22.7L215.1,374.3z"/>
				<path class="st2" d="M286.8,330.5v104.4h-98V330.5h26.3v44.9c0,12.5,10.1,22.7,22.7,22.7s22.7-10.1,22.7-22.7v-44.9H286.8z"/>
				<path class="st3" d="M260.5,330.5h26.3v35.8h-26.3V330.5z"/>
				<path class="st3" d="M188.8,330.5h26.3v35.8h-26.3V330.5z"/>
				<path class="st4" d="M411.5,350.3H67.1c-5.5,0-10-4.5-10-10V121.2c0-5.5,4.5-10,10-10h344.5c5.5,0,10,4.5,10,10v219.1
					C421.5,345.8,417.1,350.3,411.5,350.3z"/>
				<path class="st5" d="M421.5,306.5V121.2c0-5.5-4.5-10-10-10H67.1c-5.5,0-10,4.5-10,10v185.3H421.5z"/>
				<path class="st6" d="M421.5,121.2v88.5H57.1v-88.5c0-5.5,4.5-10,10-10h344.5C417.1,111.2,421.5,115.7,421.5,121.2z"/>
				<g>
					<path class="st7" d="M421.5,121.2v46.6H291.5c-2,0-3.7-1.6-3.7-3.7v-27.4c0-10.6,5.2-19.9,13.3-25.5h110.5
						C417.1,111.2,421.5,115.7,421.5,121.2z"/>
				</g>
				<g>
					<path class="st2" d="M256.1,329.6h-36.7c-2.8,0-5-2.2-5-5s2.2-5,5-5h36.7c2.8,0,5,2.2,5,5S258.9,329.6,256.1,329.6z"/>
				</g>
				<g>
					<path class="st5" d="M307.1,193.9h-96.7c-2.8,0-5-2.2-5-5s2.2-5,5-5h96.7c2.8,0,5,2.2,5,5S309.9,193.9,307.1,193.9z"/>
				</g>
				<g>
					<g>
						<circle class="st8" cx="136" cy="199.3" r="49.4"/>
						<path class="st5" d="M153.1,192.5c0-9.4-7.7-17.1-17.1-17.1S119,183,119,192.5c0,4.6,1.9,8.9,4.9,11.9
							c-3,3.1-4.9,7.3-4.9,11.9c0,2.8,2.3,5.1,5.1,5.1s5.1-2.3,5.1-5.1c0-3.7,3.1-6.8,6.8-6.8c3.7,0,6.8,3.1,6.8,6.8
							c0,2.8,2.3,5.1,5.1,5.1s5.1-2.3,5.1-5.1c0-4.6-1.9-8.9-4.9-11.9C151.2,201.3,153.1,197.1,153.1,192.5L153.1,192.5z M136,185.7
							c3.7,0,6.8,3.1,6.8,6.8c0,3.7-3.1,6.8-6.8,6.8c-3.7,0-6.8-3.1-6.8-6.8C129.2,188.7,132.3,185.7,136,185.7z"/>
					</g>
				</g>
				<path class="st8" d="M397.8,306.5H214.5v-67.8c0-2.8,2.2-5,5-5h173.3c2.8,0,5,2.2,5,5L397.8,306.5L397.8,306.5z"/>
				<path class="st8" d="M183.3,306.5H86.7v-22.8c0-2.8,2.2-5,5-5h86.7c2.8,0,5,2.2,5,5V306.5z"/>
				<path class="st9" d="M397.8,256.2H214.5v-17.5c0-2.8,2.2-5,5-5h173.3c2.8,0,5,2.2,5,5L397.8,256.2L397.8,256.2z"/>
				<g>
					<g>
						<path class="st10" d="M291.5,148.3h132.4c17.2,0,31.1-13.9,31.1-31.1S441,86.1,423.8,86.1H318.9c-17.2,0-31.1,13.9-31.1,31.1
							v27.4C287.8,146.7,289.4,148.3,291.5,148.3L291.5,148.3z"/>
					</g>
					<g>
						<g>
							<path class="st5" d="M352.9,112.9h73.5c2.8,0,5-2.2,5-5s-2.2-5-5-5h-73.5c-2.8,0-5,2.2-5,5S350.1,112.9,352.9,112.9z"/>
						</g>
						<g>
							<path class="st5" d="M322.9,131.5h103.5c2.8,0,5-2.2,5-5s-2.2-5-5-5H322.9c-2.8,0-5,2.2-5,5S320.1,131.5,322.9,131.5z"/>
						</g>
					</g>
				</g>
				<path class="st10" d="M118.2,79.1c-2.8,0-5-2.2-5-5c0-3.3-2.7-6-6-6c-2.8,0-5-2.2-5-5s2.2-5,5-5c3.3,0,6-2.7,6-6
					c0-2.8,2.2-5,5-5s5,2.2,5,5c0,3.3,2.7,6,6,6c2.8,0,5,2.2,5,5s-2.2,5-5,5c-3.3,0-6,2.7-6,6C123.2,76.9,121,79.1,118.2,79.1z"/>
				<path class="st10" d="M108.6,439.9c-2.8,0-5-2.2-5-5c0-3.3-2.7-6-6-6c-2.8,0-5-2.2-5-5s2.2-5,5-5c3.3,0,6-2.7,6-6
					c0-2.8,2.2-5,5-5s5,2.2,5,5c0,3.3,2.7,6,6,6c2.8,0,5,2.2,5,5s-2.2,5-5,5c-3.3,0-6,2.7-6,6C113.6,437.7,111.4,439.9,108.6,439.9z
					"/>
				<path class="st4" d="M410.2,453.6c-2.8,0-5-2.2-5-5c0-3.3-2.7-6-6-6c-2.8,0-5-2.2-5-5s2.2-5,5-5c3.3,0,6-2.7,6-6
					c0-2.8,2.2-5,5-5s5,2.2,5,5c0,3.3,2.7,6,6,6c2.8,0,5,2.2,5,5s-2.2,5-5,5c-3.3,0-6,2.7-6,6C415.2,451.3,412.9,453.6,410.2,453.6z
					"/>
				<path class="st4" d="M181.2,75.7c-1.3,0-2.6-0.5-3.5-1.5l-11.3-11.3c-0.9-0.9-1.5-2.2-1.5-3.5s0.5-2.6,1.5-3.5l11.3-11.3
					c2-2,5.1-2,7.1,0L196,55.9c0.9,0.9,1.5,2.2,1.5,3.5S197,62,196,62.9l-11.3,11.3C183.8,75.2,182.5,75.7,181.2,75.7z M177,59.4
					l4.2,4.2l4.2-4.2l-4.2-4.2L177,59.4z"/>
				<path class="st7" d="M378.6,422.3c-1.3,0-2.6-0.5-3.5-1.5l-11.3-11.3c-2-2-2-5.1,0-7.1l11.3-11.3c2-2,5.1-2,7.1,0l11.3,11.3
					c2,2,2,5.1,0,7.1l-11.3,11.3C381.2,421.8,379.9,422.3,378.6,422.3z M374.4,406l4.2,4.2l4.2-4.2l-4.2-4.2L374.4,406z"/>
			</g>
		</g>
		<g>
			<path class="st11" d="M52.1,340.3c0,8.3,6.7,15,15,15h116.7v74.6H150c-2.8,0-5,2.2-5,5s2.2,5,5,5h38.8h98h38.8c2.8,0,5-2.2,5-5
				s-2.2-5-5-5h-33.8v-74.6h119.7c8.3,0,15-6.7,15-15V182c0-2.8-2.2-5-5-5s-5,2.2-5,5v158.3c0,2.8-2.2,5-5,5H67.1c-2.8,0-5-2.2-5-5
				V121.2c0-2.8,2.2-5,5-5H255c2.8,0,5-2.2,5-5s-2.2-5-5-5H67.1c-8.3,0-15,6.7-15,15V340.3z M281.8,429.9h-88v-74.6h16.3v20.1
				c0,15.3,12.4,27.7,27.7,27.7s27.7-12.4,27.7-27.7v-20.1h16.3V429.9z M220.1,355.3h35.3v20.1c0,9.7-7.9,17.7-17.7,17.7
				s-17.7-7.9-17.7-17.7V355.3z"/>
			<path class="st11" d="M291.5,153.3h132.4c19.9,0,36.1-16.2,36.1-36.1s-16.2-36.1-36.1-36.1H318.9c-19.9,0-36.1,16.2-36.1,36.1
				v27.4C282.8,149.4,286.7,153.3,291.5,153.3L291.5,153.3z M292.8,117.2c0-14.4,11.7-26.1,26.1-26.1h104.9
				c14.4,0,26.1,11.7,26.1,26.1s-11.7,26.1-26.1,26.1H292.8L292.8,117.2L292.8,117.2z"/>
		</g>
	</g>
</g>
</svg>
